<svg xmlns="http://www.w3.org/2000/svg" width="256px" height="256px" viewBox="0 0 1141 1141">

    <path fill="white" stroke="#000" stroke-width="15" d="M172 7v1127h797V7H172z" />
    <path fill="gray" stroke="#000"
        d="m581 118-5 51H467l-4 36h37l6.87 31 15.22 51 13.92 34L550 349c1.51 2.65 6.49 11.35 6.44 14-.07 3.22-4.09 6.65-6.16 9L529 395c-19.41 19.38-41.25 37.15-64 52.48l-20 12.33L428 470c1.84 6.43 14.82 28.57 19 35 5.54-1.76 14.74-8 20-11.32l28-18.31 24-17.82c14.71-11.75 30.56-26.61 43.17-40.55 5.64-6.24 11.92-12.14 16.83-19l22.46 29c15.67 19.14 32.98 37.81 51.54 54.15 6.48 5.71 21.08 19.64 28 22.85l14.86-21c1.55-2.16 5.85-7.49 5.82-10-.04-3.24-4.43-6.47-6.68-8.42l-20-17.75c-14.53-13.15-43.3-44.05-54.71-59.83l-11.14-15c-1.12-1.54-3.56-4.69-3.69-6.58-.18-2.54 5.3-10.01 6.85-12.42l17.44-29 15.47-30c8.9-18.84 16.5-38.4 23.47-58L679 205h39l4-36H613l5-51h-37zm58 87c-5.51 24.15-26.27 72.79-38.31 95L583 330c-4.97-6.25-15.06-29.65-18.4-38-11.33-28.32-20.58-57.06-26.6-87h101zM517 598l-12.58 35c-13.37 35.44-29.69 69.71-47.73 103l-18.36 29c-3.79 5.71-8.25 11.41-10.33 18l26 19 24-40-1.84 25-5 45-10 89-7.16 64h34l10.17-97 13.66-129 5-48 2.47-25 8.84-23 12.28-31 7.58-23-31-11zm110 0-1.83 19-5.17 55h-31l7.29-25 5.71-22-30-6c-5.3 26.35-16.06 54.85-27.74 79-6.25 12.92-12.86 26.29-21.26 38 4.12 5 19.33 17.4 25 21l19.25-34 6.75-16h42l-4.17 38-5.83 54h-82l-4 36h82l-2.83 30-7.34 71-4.83 49h34l5.83-54 7.34-71 2.83-25h70l3-36h-69l2.72-29 6.28-63h57l7.26-.99 2.02-9.01 2.72-25h-65l4.83-45 3.17-29h-35z" />

</svg>