<?xml version="1.0" encoding="UTF-8" standalone="no"?>
<!DOCTYPE svg PUBLIC "-//W3C//DTD SVG 20010904//EN"
              "http://www.w3.org/TR/2001/REC-SVG-20010904/DTD/svg10.dtd">

<svg xmlns="http://www.w3.org/2000/svg"
     width="512px" height="512px"
     viewBox="0 0 512 512">
  <path id="r"
        fill="#5597d3" stroke="black" stroke-width="7"
        d="M 20.00,66.00
           C 20.00,66.00 20.00,443.00 20.00,443.00
             20.00,443.00 400.00,443.00 400.00,443.00
             400.00,443.00 411.28,348.00 411.28,348.00
             411.28,348.00 424.16,240.00 424.16,240.00
             424.16,240.00 434.16,156.00 434.16,156.00
             434.16,156.00 438.00,124.00 438.00,124.00
             438.00,124.00 232.00,124.00 232.00,124.00
             229.99,124.00 226.88,124.12 225.04,123.40
             221.04,121.86 215.52,112.75 213.00,109.00
             213.00,109.00 193.00,80.00 193.00,80.00
             190.70,76.59 185.51,68.04 181.91,66.60
             180.12,65.88 176.97,66.00 175.00,66.00
             175.00,66.00 20.00,66.00 20.00,66.00 Z" />
  <path id="b"
        fill="#3b6e9b" stroke="black" stroke-width="7"
        d="M 113.00,196.00
           C 113.00,196.00 492.00,196.00 492.00,196.00
             492.00,196.00 404.00,443.00 404.00,443.00
             404.00,443.00 20.00,443.00 20.00,443.00
             20.00,443.00 113.00,196.00 113.00,196.00 Z" />
</svg>
