<svg xmlns="http://www.w3.org/2000/svg" width="512px" height="512px" viewBox="0 0 1141 1141">

    <path fill="white" stroke="#000" stroke-width="15" d="M172 7v1127h797V7H172z" />

    <path fill="gray" stroke="#000"
        d="M267 202.74c-13.04 6.98-6.29 23.61 6 22.03 10.05-1.28 13.24-13.91 5.79-20.34-3.44-2.97-7.68-2.68-11.79-1.69zm42.04.11c-13.85 8.09-3.52 25.99 8.96 21.26 8.47-3.21 10.29-14.87 2.81-20.22-3.47-2.49-7.9-2.12-11.77-1.04zm42.98-.11c-12.53 6.89-6.51 23.63 5.98 22.03 9.34-1.19 13.45-12.87 6.77-19.54-3.67-3.68-8.06-3.63-12.75-2.49zm42.98 0c-13.04 6.98-6.29 23.61 6 22.03 10.05-1.28 13.24-13.91 5.79-20.34-3.44-2.97-7.68-2.68-11.79-1.69zm42.04.11c-13.85 8.09-3.52 25.99 8.96 21.26 8.47-3.21 10.29-14.87 2.81-20.22-3.47-2.49-7.9-2.12-11.77-1.04zm42.98-.11c-12.53 6.89-6.51 23.63 5.98 22.03 9.34-1.19 13.45-12.87 6.77-19.54-3.67-3.68-8.06-3.63-12.75-2.49zm42.98 0c-13.04 6.98-6.29 23.61 6 22.03 10.05-1.28 13.24-13.91 5.79-20.34-3.44-2.97-7.68-2.68-11.79-1.69zm42.04.11c-13.85 8.09-3.52 25.99 8.96 21.26 8.47-3.21 10.29-14.87 2.81-20.22-3.47-2.49-7.9-2.12-11.77-1.04zm42.98-.11c-12.53 6.89-6.51 23.63 5.98 22.03 9.34-1.19 13.45-12.87 6.77-19.54-3.67-3.68-8.06-3.63-12.75-2.49zm42.98 0c-13.04 6.98-6.29 23.61 6 22.03 10.05-1.28 13.24-13.91 5.79-20.34-3.44-2.97-7.68-2.68-11.79-1.69zm42.04.11c-13.85 8.09-3.52 25.99 8.96 21.26 8.47-3.21 10.29-14.87 2.81-20.22-3.47-2.49-7.9-2.12-11.77-1.04zm42.98-.11c-12.53 6.89-6.51 23.63 5.98 22.03 9.34-1.19 13.45-12.87 6.77-19.54-3.67-3.68-8.06-3.63-12.75-2.49zm42.98 0c-13.04 6.98-6.29 23.61 6 22.03 10.05-1.28 13.24-13.91 5.79-20.34-3.44-2.97-7.68-2.68-11.79-1.69zm42.04.11c-13.85 8.09-3.52 25.99 8.96 21.26 8.47-3.21 10.29-14.87 2.81-20.22-3.47-2.49-7.9-2.12-11.77-1.04zm42.98-.11c-12.53 6.89-6.51 23.63 5.98 22.03 9.34-1.19 13.45-12.87 6.77-19.54-3.67-3.68-8.06-3.63-12.75-2.49zM267 394.74c-13.04 6.98-6.29 23.61 6 22.03 10.05-1.28 13.24-13.91 5.79-20.34-3.44-2.97-7.68-2.68-11.79-1.69zm42.04.11c-13.85 8.09-3.52 25.99 8.96 21.26 8.47-3.21 10.29-14.87 2.81-20.22-3.47-2.49-7.9-2.12-11.77-1.04zm42.98-.11c-12.53 6.89-6.51 23.63 5.98 22.03 9.34-1.19 13.45-12.87 6.77-19.54-3.67-3.68-8.06-3.63-12.75-2.49zm42.98 0c-13.04 6.98-6.29 23.61 6 22.03 10.05-1.28 13.24-13.91 5.79-20.34-3.44-2.97-7.68-2.68-11.79-1.69zm42.04.11c-13.85 8.09-3.52 25.99 8.96 21.26 8.47-3.21 10.29-14.87 2.81-20.22-3.47-2.49-7.9-2.12-11.77-1.04zm42.98-.11c-12.53 6.89-6.51 23.63 5.98 22.03 9.34-1.19 13.45-12.87 6.77-19.54-3.67-3.68-8.06-3.63-12.75-2.49zm42.98 0c-13.04 6.98-6.29 23.61 6 22.03 10.05-1.28 13.24-13.91 5.79-20.34-3.44-2.97-7.68-2.68-11.79-1.69zm42.04.11c-13.85 8.09-3.52 25.99 8.96 21.26 8.47-3.21 10.29-14.87 2.81-20.22-3.47-2.49-7.9-2.12-11.77-1.04zm42.98-.11c-12.53 6.89-6.51 23.63 5.98 22.03 9.34-1.19 13.45-12.87 6.77-19.54-3.67-3.68-8.06-3.63-12.75-2.49zm42.98 0c-13.04 6.98-6.29 23.61 6 22.03 10.05-1.28 13.24-13.91 5.79-20.34-3.44-2.97-7.68-2.68-11.79-1.69zm42.04.11c-13.85 8.09-3.52 25.99 8.96 21.26 8.47-3.21 10.29-14.87 2.81-20.22-3.47-2.49-7.9-2.12-11.77-1.04zm42.98-.11c-12.53 6.89-6.51 23.63 5.98 22.03 9.34-1.19 13.45-12.87 6.77-19.54-3.67-3.68-8.06-3.63-12.75-2.49zm42.98 0c-13.04 6.98-6.29 23.61 6 22.03 10.05-1.28 13.24-13.91 5.79-20.34-3.44-2.97-7.68-2.68-11.79-1.69zm42.04.11c-13.85 8.09-3.52 25.99 8.96 21.26 8.47-3.21 10.29-14.87 2.81-20.22-3.47-2.49-7.9-2.12-11.77-1.04zm42.98-.11c-12.53 6.89-6.51 23.63 5.98 22.03 9.34-1.19 13.45-12.87 6.77-19.54-3.67-3.68-8.06-3.63-12.75-2.49zM267 586.74c-13.04 6.98-6.29 23.61 6 22.03 10.05-1.28 13.24-13.91 5.79-20.34-3.44-2.97-7.68-2.68-11.79-1.69zm42.04.11c-13.85 8.09-3.52 25.99 8.96 21.26 8.47-3.21 10.29-14.87 2.81-20.22-3.47-2.49-7.9-2.12-11.77-1.04zm42.98-.11c-12.53 6.89-6.51 23.63 5.98 22.03 9.34-1.19 13.45-12.87 6.77-19.54-3.67-3.68-8.06-3.63-12.75-2.49zm42.98 0c-13.04 6.98-6.29 23.61 6 22.03 10.05-1.28 13.24-13.91 5.79-20.34-3.44-2.97-7.68-2.68-11.79-1.69zm42.04.11c-13.85 8.09-3.52 25.99 8.96 21.26 8.47-3.21 10.29-14.87 2.81-20.22-3.47-2.49-7.9-2.12-11.77-1.04zm42.98-.11c-12.53 6.89-6.51 23.63 5.98 22.03 9.34-1.19 13.45-12.87 6.77-19.54-3.67-3.68-8.06-3.63-12.75-2.49zm42.98 0c-13.04 6.98-6.29 23.61 6 22.03 10.05-1.28 13.24-13.91 5.79-20.34-3.44-2.97-7.68-2.68-11.79-1.69zm42.04.11c-13.85 8.09-3.52 25.99 8.96 21.26 8.47-3.21 10.29-14.87 2.81-20.22-3.47-2.49-7.9-2.12-11.77-1.04zm42.98-.11c-12.53 6.89-6.51 23.63 5.98 22.03 9.34-1.19 13.45-12.87 6.77-19.54-3.67-3.68-8.06-3.63-12.75-2.49zM565 720l-6 43-16.44 1.02L540 771l-2 16h17l-5.27 31-8.81 56c-2.18 13.29-3.79 29.16 4.19 40.99 8.52 12.63 25.83 12.25 38.89 8.58 2.72-.76 10.51-2.93 11.96-5.22 1.23-1.92.12-4.45-.58-6.35L590 897c-8.74 2.08-19.44 10.62-23.29-4-.54-2.03-.65-3.92-.7-6-.19-8.24 2.46-21.43 3.72-30l7.4-50 2.87-20h30l3-24h-29l6-43h-25zm285 0-6 43-16.44 1.02L825 771l-2 16h17l-5.27 31-8.81 56c-2.18 13.29-3.79 29.16 4.19 40.99 8.52 12.63 25.83 12.25 38.89 8.58 2.72-.76 10.51-2.93 11.96-5.22 1.23-1.92.12-4.45-.58-6.35L875 897c-8.74 2.08-19.44 10.62-23.29-4-.54-2.03-.65-3.92-.7-6-.19-8.24 2.46-21.43 3.72-30l7.4-50 2.87-20h30l3-24h-29l6-43h-25zM702 879l-24-3c-1.45 5.12-4.04 10.83-7.38 15-2.45 3.06-6.11 6.52-9.62 8.32-9.78 5-19.92 1.9-24.47-8.32-2.08-4.66-2.17-8.14-2.69-13-.34-3.1-.89-4.72-.66-8 .21-2.9.96-16.14 1.99-17.69 1.86-2.78 5.89-2.3 8.83-2.31h64c1.78-21.98 6.42-49.2-3.32-70-12.25-26.16-52.75-23.78-70.39-4.91-9.93 10.62-14.8 23.19-18.71 36.91-6.74 23.62-7.86 43.69-7.58 68 .14 11.95 4.2 28.31 13.17 36.68 7 6.53 20.41 9.76 29.83 9.23 20.47-1.16 35.97-11.63 45.24-29.91 3.03-5.96 5.15-10.23 5.76-17zm22-116 5.66 20 12.62 39 5.57 20-12.43 24L704 923h20c9.1-.06 7.41-1.4 14-13l14.14-26c2.8-5.05 3.38-8.05 7.86-12l14 51h27l-6.33-22-11.34-35-6.17-22 10.99-21 22.13-39L821 763h-19c-9.86.07-9.93 4.92-14.31 13L766 816l-11.98-39c-3.39-11.05-2.33-13.93-12.02-14h-18zm-41 65h-45c3.1-11.65 6.99-29.39 16.09-37.79 7.82-7.22 21.33-7.97 26.39 2.8 4.54 9.67 3.89 24.61 2.52 34.99z" />

</svg>