<?xml version="1.0" encoding="UTF-8" standalone="no"?>
<!DOCTYPE svg PUBLIC "-//W3C//DTD SVG 20010904//EN"
              "http://www.w3.org/TR/2001/REC-SVG-20010904/DTD/svg10.dtd">

<svg xmlns="http://www.w3.org/2000/svg"
     width="512px" height="512px"
     viewBox="0 0 512 512">
  <path id="box"
        fill="white" stroke="black" stroke-width="7px"
        d="M 80.00,6.00
           C 80.00,6.00 80.00,504.00 80.00,504.00
             80.00,504.00 431.00,504.00 431.00,504.00
             431.00,504.00 431.00,6.00 431.00,6.00
             431.00,6.00 80.00,6.00 80.00,6.00 Z" />
  <path id="text"
        fill="gray" stroke="black" stroke-width="1"
        d="M 118.55,137.00
           C 114.24,137.00 111.00,135.76 108.83,133.28
             106.65,130.80 105.39,126.97 105.05,121.78
             104.70,116.59 105.10,109.93 106.25,101.78
             108.02,89.39 110.55,80.36 113.84,74.70
             117.14,69.05 121.66,66.22 127.41,66.22
             131.82,66.22 135.10,67.46 137.25,69.94
             139.39,72.42 140.62,76.27 140.94,81.50
             141.26,86.72 140.88,93.48 139.78,101.78
             138.18,114.01 135.71,122.94 132.39,128.56
             129.07,134.19 124.45,137.00 118.55,137.00 Z
           M 119.31,129.22
           C 121.50,129.22 123.29,128.27 124.69,126.38
             126.09,124.47 127.28,121.48 128.25,117.42
             129.23,113.35 130.21,108.14 131.19,101.78
             132.68,92.09 133.13,85.04 132.56,80.62
             131.99,76.21 130.10,74.00 126.89,74.00
             124.77,74.00 122.98,74.97 121.55,76.91
             120.12,78.84 118.89,81.85 117.86,85.95
             116.83,90.05 115.82,95.32 114.84,101.78
             113.41,111.37 113.02,118.34 113.64,122.69
             114.27,127.04 116.16,129.22 119.31,129.22 Z
           M 161.55,137.00
           C 157.24,137.00 154.00,135.76 151.83,133.28
             149.65,130.80 148.39,126.97 148.05,121.78
             147.70,116.59 148.10,109.93 149.25,101.78
             151.02,89.39 153.55,80.36 156.84,74.70
             160.14,69.05 164.66,66.22 170.41,66.22
             174.82,66.22 178.10,67.46 180.25,69.94
             182.39,72.42 183.62,76.27 183.94,81.50
             184.26,86.72 183.88,93.48 182.78,101.78
             181.18,114.01 178.71,122.94 175.39,128.56
             172.07,134.19 167.45,137.00 161.55,137.00 Z
           M 162.31,129.22
           C 164.50,129.22 166.29,128.27 167.69,126.38
             169.09,124.47 170.28,121.48 171.25,117.42
             172.23,113.35 173.21,108.14 174.19,101.78
             175.68,92.09 176.13,85.04 175.56,80.62
             174.99,76.21 173.10,74.00 169.89,74.00
             167.77,74.00 165.98,74.97 164.55,76.91
             163.12,78.84 161.89,81.85 160.86,85.95
             159.83,90.05 158.82,95.32 157.84,101.78
             156.41,111.37 156.02,118.34 156.64,122.69
             157.27,127.04 159.16,129.22 162.31,129.22 Z
           M 204.55,137.00
           C 200.24,137.00 197.00,135.76 194.83,133.28
             192.65,130.80 191.39,126.97 191.05,121.78
             190.70,116.59 191.10,109.93 192.25,101.78
             194.02,89.39 196.55,80.36 199.84,74.70
             203.14,69.05 207.66,66.22 213.41,66.22
             217.82,66.22 221.10,67.46 223.25,69.94
             225.39,72.42 226.62,76.27 226.94,81.50
             227.26,86.72 226.88,93.48 225.78,101.78
             224.18,114.01 221.71,122.94 218.39,128.56
             215.07,134.19 210.45,137.00 204.55,137.00 Z
           M 205.31,129.22
           C 207.50,129.22 209.29,128.27 210.69,126.38
             212.09,124.47 213.28,121.48 214.25,117.42
             215.23,113.35 216.21,108.14 217.19,101.78
             218.68,92.09 219.13,85.04 218.56,80.62
             217.99,76.21 216.10,74.00 212.89,74.00
             210.77,74.00 208.98,74.97 207.55,76.91
             206.12,78.84 204.89,81.85 203.86,85.95
             202.83,90.05 201.82,95.32 200.84,101.78
             199.41,111.37 199.02,118.34 199.64,122.69
             200.27,127.04 202.16,129.22 205.31,129.22 Z
           M 243.77,137.00
           C 243.77,137.00 235.42,137.00 235.42,137.00
             235.42,137.00 243.59,78.47 243.59,78.47
             242.61,78.75 241.58,79.00 240.48,79.20
             239.40,79.40 238.31,79.50 237.22,79.50
             237.22,79.50 237.73,72.77 237.73,72.77
             239.34,72.48 241.13,71.88 243.11,70.98
             245.09,70.09 246.68,69.12 247.89,68.09
             247.89,68.09 253.39,68.52 253.39,68.52
             253.39,68.52 243.77,137.00 243.77,137.00 Z
           M 273.55,137.00
           C 269.24,137.00 266.00,135.76 263.83,133.28
             261.65,130.80 260.39,126.97 260.05,121.78
             259.70,116.59 260.10,109.93 261.25,101.78
             263.02,89.39 265.55,80.36 268.84,74.70
             272.14,69.05 276.66,66.22 282.41,66.22
             286.82,66.22 290.10,67.46 292.25,69.94
             294.39,72.42 295.62,76.27 295.94,81.50
             296.26,86.72 295.88,93.48 294.78,101.78
             293.18,114.01 290.71,122.94 287.39,128.56
             284.07,134.19 279.45,137.00 273.55,137.00 Z
           M 274.31,129.22
           C 276.50,129.22 278.29,128.27 279.69,126.38
             281.09,124.47 282.28,121.48 283.25,117.42
             284.23,113.35 285.21,108.14 286.19,101.78
             287.68,92.09 288.13,85.04 287.56,80.62
             286.99,76.21 285.10,74.00 281.89,74.00
             279.77,74.00 277.98,74.97 276.55,76.91
             275.12,78.84 273.89,81.85 272.86,85.95
             271.83,90.05 270.82,95.32 269.84,101.78
             268.41,111.37 268.02,118.34 268.64,122.69
             269.27,127.04 271.16,129.22 274.31,129.22 Z
           M 316.55,137.00
           C 312.24,137.00 309.00,135.76 306.83,133.28
             304.65,130.80 303.39,126.97 303.05,121.78
             302.70,116.59 303.10,109.93 304.25,101.78
             306.02,89.39 308.55,80.36 311.84,74.70
             315.14,69.05 319.66,66.22 325.41,66.22
             329.82,66.22 333.10,67.46 335.25,69.94
             337.39,72.42 338.62,76.27 338.94,81.50
             339.26,86.72 338.88,93.48 337.78,101.78
             336.18,114.01 333.71,122.94 330.39,128.56
             327.07,134.19 322.45,137.00 316.55,137.00 Z
           M 317.31,129.22
           C 319.50,129.22 321.29,128.27 322.69,126.38
             324.09,124.47 325.28,121.48 326.25,117.42
             327.23,113.35 328.21,108.14 329.19,101.78
             330.68,92.09 331.13,85.04 330.56,80.62
             329.99,76.21 328.10,74.00 324.89,74.00
             322.77,74.00 320.98,74.97 319.55,76.91
             318.12,78.84 316.89,81.85 315.86,85.95
             314.83,90.05 313.82,95.32 312.84,101.78
             311.41,111.37 311.02,118.34 311.64,122.69
             312.27,127.04 314.16,129.22 317.31,129.22 Z
           M 355.77,137.00
           C 355.77,137.00 347.42,137.00 347.42,137.00
             347.42,137.00 355.59,78.47 355.59,78.47
             354.61,78.75 353.58,79.00 352.48,79.20
             351.40,79.40 350.31,79.50 349.22,79.50
             349.22,79.50 349.73,72.77 349.73,72.77
             351.34,72.48 353.13,71.88 355.11,70.98
             357.09,70.09 358.68,69.12 359.89,68.09
             359.89,68.09 365.39,68.52 365.39,68.52
             365.39,68.52 355.77,137.00 355.77,137.00 Z
           M 385.55,137.00
           C 381.24,137.00 378.00,135.76 375.83,133.28
             373.65,130.80 372.39,126.97 372.05,121.78
             371.70,116.59 372.10,109.93 373.25,101.78
             375.02,89.39 377.55,80.36 380.84,74.70
             384.14,69.05 388.66,66.22 394.41,66.22
             398.82,66.22 402.10,67.46 404.25,69.94
             406.39,72.42 407.62,76.27 407.94,81.50
             408.26,86.72 407.88,93.48 406.78,101.78
             405.18,114.01 402.71,122.94 399.39,128.56
             396.07,134.19 391.45,137.00 385.55,137.00 Z
           M 386.31,129.22
           C 388.50,129.22 390.29,128.27 391.69,126.38
             393.09,124.47 394.28,121.48 395.25,117.42
             396.23,113.35 397.21,108.14 398.19,101.78
             399.68,92.09 400.13,85.04 399.56,80.62
             398.99,76.21 397.10,74.00 393.89,74.00
             391.77,74.00 389.98,74.97 388.55,76.91
             387.12,78.84 385.89,81.85 384.86,85.95
             383.83,90.05 382.82,95.32 381.84,101.78
             380.41,111.37 380.02,118.34 380.64,122.69
             381.27,127.04 383.16,129.22 386.31,129.22 Z
           M 127.55,241.00
           C 123.24,241.00 120.00,239.76 117.83,237.28
             115.65,234.80 114.39,230.97 114.05,225.78
             113.70,220.59 114.10,213.93 115.25,205.78
             117.02,193.39 119.55,184.36 122.84,178.70
             126.14,173.05 130.66,170.22 136.41,170.22
             140.82,170.22 144.10,171.46 146.25,173.94
             148.39,176.42 149.62,180.27 149.94,185.50
             150.26,190.72 149.88,197.48 148.78,205.78
             147.18,218.01 144.71,226.94 141.39,232.56
             138.07,238.19 133.45,241.00 127.55,241.00 Z
           M 128.31,233.22
           C 130.50,233.22 132.29,232.27 133.69,230.38
             135.09,228.47 136.28,225.48 137.25,221.42
             138.23,217.35 139.21,212.14 140.19,205.78
             141.68,196.09 142.13,189.04 141.56,184.62
             140.99,180.21 139.10,178.00 135.89,178.00
             133.77,178.00 131.98,178.97 130.55,180.91
             129.12,182.84 127.89,185.85 126.86,189.95
             125.83,194.05 124.82,199.32 123.84,205.78
             122.41,215.37 122.02,222.34 122.64,226.69
             123.27,231.04 125.16,233.22 128.31,233.22 Z
           M 170.55,241.00
           C 166.24,241.00 163.00,239.76 160.83,237.28
             158.65,234.80 157.39,230.97 157.05,225.78
             156.70,220.59 157.10,213.93 158.25,205.78
             160.02,193.39 162.55,184.36 165.84,178.70
             169.14,173.05 173.66,170.22 179.41,170.22
             183.82,170.22 187.10,171.46 189.25,173.94
             191.39,176.42 192.62,180.27 192.94,185.50
             193.26,190.72 192.88,197.48 191.78,205.78
             190.18,218.01 187.71,226.94 184.39,232.56
             181.07,238.19 176.45,241.00 170.55,241.00 Z
           M 171.31,233.22
           C 173.50,233.22 175.29,232.27 176.69,230.38
             178.09,228.47 179.28,225.48 180.25,221.42
             181.23,217.35 182.21,212.14 183.19,205.78
             184.68,196.09 185.13,189.04 184.56,184.62
             183.99,180.21 182.10,178.00 178.89,178.00
             176.77,178.00 174.98,178.97 173.55,180.91
             172.12,182.84 170.89,185.85 169.86,189.95
             168.83,194.05 167.82,199.32 166.84,205.78
             165.41,215.37 165.02,222.34 165.64,226.69
             166.27,231.04 168.16,233.22 171.31,233.22 Z
           M 209.77,241.00
           C 209.77,241.00 201.42,241.00 201.42,241.00
             201.42,241.00 209.59,182.47 209.59,182.47
             208.61,182.75 207.58,183.00 206.48,183.20
             205.40,183.40 204.31,183.50 203.22,183.50
             203.22,183.50 203.73,176.77 203.73,176.77
             205.34,176.48 207.13,175.88 209.11,174.98
             211.09,174.09 212.68,173.12 213.89,172.09
             213.89,172.09 219.39,172.52 219.39,172.52
             219.39,172.52 209.77,241.00 209.77,241.00 Z
           M 239.55,241.00
           C 235.24,241.00 232.00,239.76 229.83,237.28
             227.65,234.80 226.39,230.97 226.05,225.78
             225.70,220.59 226.10,213.93 227.25,205.78
             229.02,193.39 231.55,184.36 234.84,178.70
             238.14,173.05 242.66,170.22 248.41,170.22
             252.82,170.22 256.10,171.46 258.25,173.94
             260.39,176.42 261.62,180.27 261.94,185.50
             262.26,190.72 261.88,197.48 260.78,205.78
             259.18,218.01 256.71,226.94 253.39,232.56
             250.07,238.19 245.45,241.00 239.55,241.00 Z
           M 240.31,233.22
           C 242.50,233.22 244.29,232.27 245.69,230.38
             247.09,228.47 248.28,225.48 249.25,221.42
             250.23,217.35 251.21,212.14 252.19,205.78
             253.68,196.09 254.13,189.04 253.56,184.62
             252.99,180.21 251.10,178.00 247.89,178.00
             245.77,178.00 243.98,178.97 242.55,180.91
             241.12,182.84 239.89,185.85 238.86,189.95
             237.83,194.05 236.82,199.32 235.84,205.78
             234.41,215.37 234.02,222.34 234.64,226.69
             235.27,231.04 237.16,233.22 240.31,233.22 Z
           M 282.55,241.00
           C 278.24,241.00 275.00,239.76 272.83,237.28
             270.65,234.80 269.39,230.97 269.05,225.78
             268.70,220.59 269.10,213.93 270.25,205.78
             272.02,193.39 274.55,184.36 277.84,178.70
             281.14,173.05 285.66,170.22 291.41,170.22
             295.82,170.22 299.10,171.46 301.25,173.94
             303.39,176.42 304.62,180.27 304.94,185.50
             305.26,190.72 304.88,197.48 303.78,205.78
             302.18,218.01 299.71,226.94 296.39,232.56
             293.07,238.19 288.45,241.00 282.55,241.00 Z
           M 283.31,233.22
           C 285.50,233.22 287.29,232.27 288.69,230.38
             290.09,228.47 291.28,225.48 292.25,221.42
             293.23,217.35 294.21,212.14 295.19,205.78
             296.68,196.09 297.13,189.04 296.56,184.62
             295.99,180.21 294.10,178.00 290.89,178.00
             288.77,178.00 286.98,178.97 285.55,180.91
             284.12,182.84 282.89,185.85 281.86,189.95
             280.83,194.05 279.82,199.32 278.84,205.78
             277.41,215.37 277.02,222.34 277.64,226.69
             278.27,231.04 280.16,233.22 283.31,233.22 Z
           M 325.55,241.00
           C 321.24,241.00 318.00,239.76 315.83,237.28
             313.65,234.80 312.39,230.97 312.05,225.78
             311.70,220.59 312.10,213.93 313.25,205.78
             315.02,193.39 317.55,184.36 320.84,178.70
             324.14,173.05 328.66,170.22 334.41,170.22
             338.82,170.22 342.10,171.46 344.25,173.94
             346.39,176.42 347.62,180.27 347.94,185.50
             348.26,190.72 347.88,197.48 346.78,205.78
             345.18,218.01 342.71,226.94 339.39,232.56
             336.07,238.19 331.45,241.00 325.55,241.00 Z
           M 326.31,233.22
           C 328.50,233.22 330.29,232.27 331.69,230.38
             333.09,228.47 334.28,225.48 335.25,221.42
             336.23,217.35 337.21,212.14 338.19,205.78
             339.68,196.09 340.13,189.04 339.56,184.62
             338.99,180.21 337.10,178.00 333.89,178.00
             331.77,178.00 329.98,178.97 328.55,180.91
             327.12,182.84 325.89,185.85 324.86,189.95
             323.83,194.05 322.82,199.32 321.84,205.78
             320.41,215.37 320.02,222.34 320.64,226.69
             321.27,231.04 323.16,233.22 326.31,233.22 Z
           M 364.77,241.00
           C 364.77,241.00 356.42,241.00 356.42,241.00
             356.42,241.00 364.59,182.47 364.59,182.47
             363.61,182.75 362.58,183.00 361.48,183.20
             360.40,183.40 359.31,183.50 358.22,183.50
             358.22,183.50 358.73,176.77 358.73,176.77
             360.34,176.48 362.13,175.88 364.11,174.98
             366.09,174.09 367.68,173.12 368.89,172.09
             368.89,172.09 374.39,172.52 374.39,172.52
             374.39,172.52 364.77,241.00 364.77,241.00 Z
           M 390.77,241.00
           C 390.77,241.00 382.42,241.00 382.42,241.00
             382.42,241.00 390.59,182.47 390.59,182.47
             389.61,182.75 388.58,183.00 387.48,183.20
             386.40,183.40 385.31,183.50 384.22,183.50
             384.22,183.50 384.73,176.77 384.73,176.77
             386.34,176.48 388.13,175.88 390.11,174.98
             392.09,174.09 393.68,173.12 394.89,172.09
             394.89,172.09 400.39,172.52 400.39,172.52
             400.39,172.52 390.77,241.00 390.77,241.00 Z
           M 127.55,345.00
           C 123.24,345.00 120.00,343.76 117.83,341.28
             115.65,338.80 114.39,334.97 114.05,329.78
             113.70,324.59 114.10,317.93 115.25,309.78
             117.02,297.39 119.55,288.36 122.84,282.70
             126.14,277.05 130.66,274.22 136.41,274.22
             140.82,274.22 144.10,275.46 146.25,277.94
             148.39,280.42 149.62,284.27 149.94,289.50
             150.26,294.72 149.88,301.48 148.78,309.78
             147.18,322.01 144.71,330.94 141.39,336.56
             138.07,342.19 133.45,345.00 127.55,345.00 Z
           M 128.31,337.22
           C 130.50,337.22 132.29,336.27 133.69,334.38
             135.09,332.47 136.28,329.48 137.25,325.42
             138.23,321.35 139.21,316.14 140.19,309.78
             141.68,300.09 142.13,293.04 141.56,288.62
             140.99,284.21 139.10,282.00 135.89,282.00
             133.77,282.00 131.98,282.97 130.55,284.91
             129.12,286.84 127.89,289.85 126.86,293.95
             125.83,298.05 124.82,303.32 123.84,309.78
             122.41,319.37 122.02,326.34 122.64,330.69
             123.27,335.04 125.16,337.22 128.31,337.22 Z
           M 166.77,345.00
           C 166.77,345.00 158.42,345.00 158.42,345.00
             158.42,345.00 166.59,286.47 166.59,286.47
             165.61,286.75 164.58,287.00 163.48,287.20
             162.40,287.40 161.31,287.50 160.22,287.50
             160.22,287.50 160.73,280.77 160.73,280.77
             162.34,280.48 164.13,279.88 166.11,278.98
             168.09,278.09 169.68,277.12 170.89,276.09
             170.89,276.09 176.39,276.52 176.39,276.52
             176.39,276.52 166.77,345.00 166.77,345.00 Z
           M 196.55,345.00
           C 192.24,345.00 189.00,343.76 186.83,341.28
             184.65,338.80 183.39,334.97 183.05,329.78
             182.70,324.59 183.10,317.93 184.25,309.78
             186.02,297.39 188.55,288.36 191.84,282.70
             195.14,277.05 199.66,274.22 205.41,274.22
             209.82,274.22 213.10,275.46 215.25,277.94
             217.39,280.42 218.62,284.27 218.94,289.50
             219.26,294.72 218.88,301.48 217.78,309.78
             216.18,322.01 213.71,330.94 210.39,336.56
             207.07,342.19 202.45,345.00 196.55,345.00 Z
           M 197.31,337.22
           C 199.50,337.22 201.29,336.27 202.69,334.38
             204.09,332.47 205.28,329.48 206.25,325.42
             207.23,321.35 208.21,316.14 209.19,309.78
             210.68,300.09 211.13,293.04 210.56,288.62
             209.99,284.21 208.10,282.00 204.89,282.00
             202.77,282.00 200.98,282.97 199.55,284.91
             198.12,286.84 196.89,289.85 195.86,293.95
             194.83,298.05 193.82,303.32 192.84,309.78
             191.41,319.37 191.02,326.34 191.64,330.69
             192.27,335.04 194.16,337.22 197.31,337.22 Z
           M 239.55,345.00
           C 235.24,345.00 232.00,343.76 229.83,341.28
             227.65,338.80 226.39,334.97 226.05,329.78
             225.70,324.59 226.10,317.93 227.25,309.78
             229.02,297.39 231.55,288.36 234.84,282.70
             238.14,277.05 242.66,274.22 248.41,274.22
             252.82,274.22 256.10,275.46 258.25,277.94
             260.39,280.42 261.62,284.27 261.94,289.50
             262.26,294.72 261.88,301.48 260.78,309.78
             259.18,322.01 256.71,330.94 253.39,336.56
             250.07,342.19 245.45,345.00 239.55,345.00 Z
           M 240.31,337.22
           C 242.50,337.22 244.29,336.27 245.69,334.38
             247.09,332.47 248.28,329.48 249.25,325.42
             250.23,321.35 251.21,316.14 252.19,309.78
             253.68,300.09 254.13,293.04 253.56,288.62
             252.99,284.21 251.10,282.00 247.89,282.00
             245.77,282.00 243.98,282.97 242.55,284.91
             241.12,286.84 239.89,289.85 238.86,293.95
             237.83,298.05 236.82,303.32 235.84,309.78
             234.41,319.37 234.02,326.34 234.64,330.69
             235.27,335.04 237.16,337.22 240.31,337.22 Z
           M 278.77,345.00
           C 278.77,345.00 270.42,345.00 270.42,345.00
             270.42,345.00 278.59,286.47 278.59,286.47
             277.61,286.75 276.58,287.00 275.48,287.20
             274.40,287.40 273.31,287.50 272.22,287.50
             272.22,287.50 272.73,280.77 272.73,280.77
             274.34,280.48 276.13,279.88 278.11,278.98
             280.09,278.09 281.68,277.12 282.89,276.09
             282.89,276.09 288.39,276.52 288.39,276.52
             288.39,276.52 278.77,345.00 278.77,345.00 Z
           M 308.55,345.00
           C 304.24,345.00 301.00,343.76 298.83,341.28
             296.65,338.80 295.39,334.97 295.05,329.78
             294.70,324.59 295.10,317.93 296.25,309.78
             298.02,297.39 300.55,288.36 303.84,282.70
             307.14,277.05 311.66,274.22 317.41,274.22
             321.82,274.22 325.10,275.46 327.25,277.94
             329.39,280.42 330.62,284.27 330.94,289.50
             331.26,294.72 330.88,301.48 329.78,309.78
             328.18,322.01 325.71,330.94 322.39,336.56
             319.07,342.19 314.45,345.00 308.55,345.00 Z
           M 309.31,337.22
           C 311.50,337.22 313.29,336.27 314.69,334.38
             316.09,332.47 317.28,329.48 318.25,325.42
             319.23,321.35 320.21,316.14 321.19,309.78
             322.68,300.09 323.13,293.04 322.56,288.62
             321.99,284.21 320.10,282.00 316.89,282.00
             314.77,282.00 312.98,282.97 311.55,284.91
             310.12,286.84 308.89,289.85 307.86,293.95
             306.83,298.05 305.82,303.32 304.84,309.78
             303.41,319.37 303.02,326.34 303.64,330.69
             304.27,335.04 306.16,337.22 309.31,337.22 Z
           M 347.77,345.00
           C 347.77,345.00 339.42,345.00 339.42,345.00
             339.42,345.00 347.59,286.47 347.59,286.47
             346.61,286.75 345.58,287.00 344.48,287.20
             343.40,287.40 342.31,287.50 341.22,287.50
             341.22,287.50 341.73,280.77 341.73,280.77
             343.34,280.48 345.13,279.88 347.11,278.98
             349.09,278.09 350.68,277.12 351.89,276.09
             351.89,276.09 357.39,276.52 357.39,276.52
             357.39,276.52 347.77,345.00 347.77,345.00 Z
           M 377.55,345.00
           C 373.24,345.00 370.00,343.76 367.83,341.28
             365.65,338.80 364.39,334.97 364.05,329.78
             363.70,324.59 364.10,317.93 365.25,309.78
             367.02,297.39 369.55,288.36 372.84,282.70
             376.14,277.05 380.66,274.22 386.41,274.22
             390.82,274.22 394.10,275.46 396.25,277.94
             398.39,280.42 399.62,284.27 399.94,289.50
             400.26,294.72 399.88,301.48 398.78,309.78
             397.18,322.01 394.71,330.94 391.39,336.56
             388.07,342.19 383.45,345.00 377.55,345.00 Z
           M 378.31,337.22
           C 380.50,337.22 382.29,336.27 383.69,334.38
             385.09,332.47 386.28,329.48 387.25,325.42
             388.23,321.35 389.21,316.14 390.19,309.78
             391.68,300.09 392.13,293.04 391.56,288.62
             390.99,284.21 389.10,282.00 385.89,282.00
             383.77,282.00 381.98,282.97 380.55,284.91
             379.12,286.84 377.89,289.85 376.86,293.95
             375.83,298.05 374.82,303.32 373.84,309.78
             372.41,319.37 372.02,326.34 372.64,330.69
             373.27,335.04 375.16,337.22 378.31,337.22 Z
           M 114.77,449.00
           C 114.77,449.00 106.42,449.00 106.42,449.00
             106.42,449.00 114.59,390.47 114.59,390.47
             113.61,390.75 112.58,391.00 111.48,391.20
             110.40,391.40 109.31,391.50 108.22,391.50
             108.22,391.50 108.73,384.77 108.73,384.77
             110.34,384.48 112.13,383.88 114.11,382.98
             116.09,382.09 117.68,381.12 118.89,380.09
             118.89,380.09 124.39,380.52 124.39,380.52
             124.39,380.52 114.77,449.00 114.77,449.00 Z
           M 144.55,449.00
           C 140.24,449.00 137.00,447.76 134.83,445.28
             132.65,442.80 131.39,438.97 131.05,433.78
             130.70,428.59 131.10,421.93 132.25,413.78
             134.02,401.39 136.55,392.36 139.84,386.70
             143.14,381.05 147.66,378.22 153.41,378.22
             157.82,378.22 161.10,379.46 163.25,381.94
             165.39,384.42 166.62,388.27 166.94,393.50
             167.26,398.72 166.88,405.48 165.78,413.78
             164.18,426.01 161.71,434.94 158.39,440.56
             155.07,446.19 150.45,449.00 144.55,449.00 Z
           M 145.31,441.22
           C 147.50,441.22 149.29,440.27 150.69,438.38
             152.09,436.47 153.28,433.48 154.25,429.42
             155.23,425.35 156.21,420.14 157.19,413.78
             158.68,404.09 159.13,397.04 158.56,392.62
             157.99,388.21 156.10,386.00 152.89,386.00
             150.77,386.00 148.98,386.97 147.55,388.91
             146.12,390.84 144.89,393.85 143.86,397.95
             142.83,402.05 141.82,407.32 140.84,413.78
             139.41,423.37 139.02,430.34 139.64,434.69
             140.27,439.04 142.16,441.22 145.31,441.22 Z
           M 187.55,449.00
           C 183.24,449.00 180.00,447.76 177.83,445.28
             175.65,442.80 174.39,438.97 174.05,433.78
             173.70,428.59 174.10,421.93 175.25,413.78
             177.02,401.39 179.55,392.36 182.84,386.70
             186.14,381.05 190.66,378.22 196.41,378.22
             200.82,378.22 204.10,379.46 206.25,381.94
             208.39,384.42 209.62,388.27 209.94,393.50
             210.26,398.72 209.88,405.48 208.78,413.78
             207.18,426.01 204.71,434.94 201.39,440.56
             198.07,446.19 193.45,449.00 187.55,449.00 Z
           M 188.31,441.22
           C 190.50,441.22 192.29,440.27 193.69,438.38
             195.09,436.47 196.28,433.48 197.25,429.42
             198.23,425.35 199.21,420.14 200.19,413.78
             201.68,404.09 202.13,397.04 201.56,392.62
             200.99,388.21 199.10,386.00 195.89,386.00
             193.77,386.00 191.98,386.97 190.55,388.91
             189.12,390.84 187.89,393.85 186.86,397.95
             185.83,402.05 184.82,407.32 183.84,413.78
             182.41,423.37 182.02,430.34 182.64,434.69
             183.27,439.04 185.16,441.22 188.31,441.22 Z
           M 230.55,449.00
           C 226.24,449.00 223.00,447.76 220.83,445.28
             218.65,442.80 217.39,438.97 217.05,433.78
             216.70,428.59 217.10,421.93 218.25,413.78
             220.02,401.39 222.55,392.36 225.84,386.70
             229.14,381.05 233.66,378.22 239.41,378.22
             243.82,378.22 247.10,379.46 249.25,381.94
             251.39,384.42 252.62,388.27 252.94,393.50
             253.26,398.72 252.88,405.48 251.78,413.78
             250.18,426.01 247.71,434.94 244.39,440.56
             241.07,446.19 236.45,449.00 230.55,449.00 Z
           M 231.31,441.22
           C 233.50,441.22 235.29,440.27 236.69,438.38
             238.09,436.47 239.28,433.48 240.25,429.42
             241.23,425.35 242.21,420.14 243.19,413.78
             244.68,404.09 245.13,397.04 244.56,392.62
             243.99,388.21 242.10,386.00 238.89,386.00
             236.77,386.00 234.98,386.97 233.55,388.91
             232.12,390.84 230.89,393.85 229.86,397.95
             228.83,402.05 227.82,407.32 226.84,413.78
             225.41,423.37 225.02,430.34 225.64,434.69
             226.27,439.04 228.16,441.22 231.31,441.22 Z
           M 273.55,449.00
           C 269.24,449.00 266.00,447.76 263.83,445.28
             261.65,442.80 260.39,438.97 260.05,433.78
             259.70,428.59 260.10,421.93 261.25,413.78
             263.02,401.39 265.55,392.36 268.84,386.70
             272.14,381.05 276.66,378.22 282.41,378.22
             286.82,378.22 290.10,379.46 292.25,381.94
             294.39,384.42 295.62,388.27 295.94,393.50
             296.26,398.72 295.88,405.48 294.78,413.78
             293.18,426.01 290.71,434.94 287.39,440.56
             284.07,446.19 279.45,449.00 273.55,449.00 Z
           M 274.31,441.22
           C 276.50,441.22 278.29,440.27 279.69,438.38
             281.09,436.47 282.28,433.48 283.25,429.42
             284.23,425.35 285.21,420.14 286.19,413.78
             287.68,404.09 288.13,397.04 287.56,392.62
             286.99,388.21 285.10,386.00 281.89,386.00
             279.77,386.00 277.98,386.97 276.55,388.91
             275.12,390.84 273.89,393.85 272.86,397.95
             271.83,402.05 270.82,407.32 269.84,413.78
             268.41,423.37 268.02,430.34 268.64,434.69
             269.27,439.04 271.16,441.22 274.31,441.22 Z
           M 316.55,449.00
           C 312.24,449.00 309.00,447.76 306.83,445.28
             304.65,442.80 303.39,438.97 303.05,433.78
             302.70,428.59 303.10,421.93 304.25,413.78
             306.02,401.39 308.55,392.36 311.84,386.70
             315.14,381.05 319.66,378.22 325.41,378.22
             329.82,378.22 333.10,379.46 335.25,381.94
             337.39,384.42 338.62,388.27 338.94,393.50
             339.26,398.72 338.88,405.48 337.78,413.78
             336.18,426.01 333.71,434.94 330.39,440.56
             327.07,446.19 322.45,449.00 316.55,449.00 Z
           M 317.31,441.22
           C 319.50,441.22 321.29,440.27 322.69,438.38
             324.09,436.47 325.28,433.48 326.25,429.42
             327.23,425.35 328.21,420.14 329.19,413.78
             330.68,404.09 331.13,397.04 330.56,392.62
             329.99,388.21 328.10,386.00 324.89,386.00
             322.77,386.00 320.98,386.97 319.55,388.91
             318.12,390.84 316.89,393.85 315.86,397.95
             314.83,402.05 313.82,407.32 312.84,413.78
             311.41,423.37 311.02,430.34 311.64,434.69
             312.27,439.04 314.16,441.22 317.31,441.22 Z
           M 355.77,449.00
           C 355.77,449.00 347.42,449.00 347.42,449.00
             347.42,449.00 355.59,390.47 355.59,390.47
             354.61,390.75 353.58,391.00 352.48,391.20
             351.40,391.40 350.31,391.50 349.22,391.50
             349.22,391.50 349.73,384.77 349.73,384.77
             351.34,384.48 353.13,383.88 355.11,382.98
             357.09,382.09 358.68,381.12 359.89,380.09
             359.89,380.09 365.39,380.52 365.39,380.52
             365.39,380.52 355.77,449.00 355.77,449.00 Z
           M 385.55,449.00
           C 381.24,449.00 378.00,447.76 375.83,445.28
             373.65,442.80 372.39,438.97 372.05,433.78
             371.70,428.59 372.10,421.93 373.25,413.78
             375.02,401.39 377.55,392.36 380.84,386.70
             384.14,381.05 388.66,378.22 394.41,378.22
             398.82,378.22 402.10,379.46 404.25,381.94
             406.39,384.42 407.62,388.27 407.94,393.50
             408.26,398.72 407.88,405.48 406.78,413.78
             405.18,426.01 402.71,434.94 399.39,440.56
             396.07,446.19 391.45,449.00 385.55,449.00 Z
           M 386.31,441.22
           C 388.50,441.22 390.29,440.27 391.69,438.38
             393.09,436.47 394.28,433.48 395.25,429.42
             396.23,425.35 397.21,420.14 398.19,413.78
             399.68,404.09 400.13,397.04 399.56,392.62
             398.99,388.21 397.10,386.00 393.89,386.00
             391.77,386.00 389.98,386.97 388.55,388.91
             387.12,390.84 385.89,393.85 384.86,397.95
             383.83,402.05 382.82,407.32 381.84,413.78
             380.41,423.37 380.02,430.34 380.64,434.69
             381.27,439.04 383.16,441.22 386.31,441.22 Z" />
</svg>
