<svg xmlns="http://www.w3.org/2000/svg" width="1024" height="1024"
    style="shape-rendering:geometricPrecision;text-rendering:geometricPrecision;image-rendering:optimizeQuality;fill-rule:evenodd;clip-rule:evenodd">

    <path style="opacity:1" fill="#ffffff" stroke="#000" stroke-width="15"
        d="M5.5 5.5h1012v1012H5.5V5.5z" />

    <path style="opacity:1" fill="#beb9a7"
        d="M293.5 53.5a56.716 56.716 0 0 1-8 10c1.112.765 1.779 1.765 2 3a73.62 73.62 0 0 1-10-5.5c-5.964-2.474-11.297-1.474-16 3a493.319 493.319 0 0 0-6 6 133.386 133.386 0 0 0-12 5c-5.524 5.51-12.024 9.344-19.5 11.5a111.465 111.465 0 0 0-10-3c-13.869 6.204-23.202 16.537-28 31a192.483 192.483 0 0 1-25 32 115.306 115.306 0 0 0-12 26 130.631 130.631 0 0 1-21 26c-2.658 3.648-4.491 7.648-5.5 12-.222 4.554-2.556 7.22-7 8a91.836 91.836 0 0 1-11.5-16A195.63 195.63 0 0 1 80.5 179a637.116 637.116 0 0 0-23-8.5v-66c6.95-2.449 11.783-7.116 14.5-14a49.248 49.248 0 0 0 0-14c-1.83-3.543-4.498-4.543-8-3a58.694 58.694 0 0 1-6.5-3v-17h236z" />
    <path style="opacity:1" fill="#acb3a2"
        d="M293.5 53.5h239c5.022 5.155 11.022 8.988 18 11.5l-5.5 5.5c-.066 8.6-.899 17.1-2.5 25.5-.102 3.062 1.231 5.229 4 6.5a285.336 285.336 0 0 0-28 7.5 119.597 119.597 0 0 1-16 2 143.883 143.883 0 0 0-22 17.5c-1.406-2.914-3.406-5.414-6-7.5l-19-13a286.282 286.282 0 0 1-27.5-2.5 100.723 100.723 0 0 0-20.5 3c-7.85-1.576-15.517-.909-23 2-5.397-.231-10.397-1.731-15-4.5a109.329 109.329 0 0 1-13-15 198.262 198.262 0 0 0-17-8 305.28 305.28 0 0 1-24-4.5c-3.639 1.974-6.639 4.64-9 8l-4-2c-2.429-8.422-7.429-14.755-15-19-.221-1.235-.888-2.235-2-3a56.716 56.716 0 0 0 8-10z" />
    <path style="opacity:1" fill="#b2b09f"
        d="M532.5 53.5h129a37.542 37.542 0 0 1-3 12.5l4.5 4.5c-1.533 8.483 1.134 15.15 8 20 1.52 3.77 3.186 7.438 5 11 5.91 4.849 9.41 10.849 10.5 18a91.836 91.836 0 0 1-16 11.5c-4.007.713-7.84.213-11.5-1.5l-8.5 8.5c-6.746.205-13.413.705-20 1.5l-9-1.5c-9.787-8.62-21.287-12.453-34.5-11.5-1.711-.061-3.044.606-4 2l-2.5-5a70.59 70.59 0 0 1-16-15.5c-5.437-3.758-11.437-5.591-18-5.5-2.769-1.271-4.102-3.438-4-6.5 1.601-8.4 2.434-16.9 2.5-25.5l5.5-5.5c-6.978-2.512-12.978-6.345-18-11.5z" />
    <path style="opacity:1" fill="#b5a693"
        d="M661.5 53.5h86c7.376 12.035 16.209 23.035 26.5 33a48.515 48.515 0 0 1 4.5 7 208.041 208.041 0 0 1 16 10.5 94.4 94.4 0 0 1 5 7.5c-3.024 1.571-4.691 4.071-5 7.5-8.489-.281-15.989 2.219-22.5 7.5a58.746 58.746 0 0 0-2.5 7c-2.044-.531-3.711-1.698-5-3.5a138.504 138.504 0 0 0-20-3c-2.71-1.46-3.376-3.46-2-6-5.452-5.265-11.952-8.432-19.5-9.5a145.24 145.24 0 0 1-16.5 1.5 82.682 82.682 0 0 0-15 6 12.93 12.93 0 0 1-5 .5c-1.09-7.151-4.59-13.151-10.5-18a137.601 137.601 0 0 1-5-11c-6.866-4.85-9.533-11.517-8-20l-4.5-4.5a37.542 37.542 0 0 0 3-12.5z" />
    <path style="opacity:1" fill="#bfb49b"
        d="M747.5 53.5h218v87c-6.095 2.571-11.262 6.571-15.5 12-2.201 6.46-3.035 13.127-2.5 20a6.846 6.846 0 0 0-4 1l-6-5a37.291 37.291 0 0 1-7 .5 10.756 10.756 0 0 1-3 2.5c-6.939-1.143-13.273-3.643-19-7.5-9.001-1.327-17.335-4.327-25-9a269.937 269.937 0 0 1-13-3c-1.02-1.556-2.353-2.722-4-3.5a473.88 473.88 0 0 0-21-4.5c-8.703-9.746-19.703-14.579-33-14.5-1.653-1.621-3.653-2.788-6-3.5 3.626-2.251 4.793-5.418 3.5-9.5a108.624 108.624 0 0 0-10.5-5 94.4 94.4 0 0 0-5-7.5 208.041 208.041 0 0 0-16-10.5 48.515 48.515 0 0 0-4.5-7c-10.291-9.965-19.124-20.965-26.5-33z" />
    <path style="opacity:1" fill="#85786d"
        d="M287.5 66.5c7.571 4.245 12.571 10.578 15 19-4.464 5.127-9.797 9.127-16 12-2.445-1.465-4.445-.965-6 1.5a28.977 28.977 0 0 0 9 9 34.706 34.706 0 0 0-6.5 7.5 2488.527 2488.527 0 0 0-4 20c-2.21 3.555-5.377 5.388-9.5 5.5-3.5 2.833-6.667 6-9.5 9.5-.667 1.333-.667 2.667 0 4a12.14 12.14 0 0 1 3.5 4.5 348.657 348.657 0 0 1-2.5 16.5c-.726 3.121-2.226 5.787-4.5 8a348.61 348.61 0 0 1 15 16.5c5.244 1.163 10.077.33 14.5-2.5 2.317 1.326 4.651 2.66 7 4a117.917 117.917 0 0 1 2.5 12.5c-3.161 6.82-4.328 13.986-3.5 21.5l2.5 2.5a122.163 122.163 0 0 0 27 1 464.856 464.856 0 0 1 6.5-12.5c7.55-5.392 14.884-5.059 22 1a58.61 58.61 0 0 1 2.5 12c-.745 4.377-.911 9.044-.5 14 2.632 5.119 3.132 10.453 1.5 16a101.699 101.699 0 0 1 5.5 31c4.544 6.189 6.044 12.689 4.5 19.5a52.355 52.355 0 0 1 3 12.5c-.756 3.26.077 6.26 2.5 9a672.398 672.398 0 0 1 4 19c3.859 3.043 6.192 7.043 7 12 .949 6.685 1.949 13.351 3 20a4.457 4.457 0 0 0 1.5 2 42.688 42.688 0 0 0 15-8.5 45.984 45.984 0 0 1 10-2 19.552 19.552 0 0 1 4-3.5 128.149 128.149 0 0 1 8 20c-1.519 6.083-1.186 12.083 1 18a71.744 71.744 0 0 0-5 8.5 123.589 123.589 0 0 0 6 8.5 18.08 18.08 0 0 1-2 3.5 589.926 589.926 0 0 1 7 28.5c-2.712.237-5.212.237-7.5 0a58.913 58.913 0 0 1-15.5 4c-15.991-2.33-31.991-4.663-48-7a225.378 225.378 0 0 1-20.5 4 40.818 40.818 0 0 1-10.5-1.5 128.738 128.738 0 0 0-16.5-8.5 162.154 162.154 0 0 0-8.5 2.5l-18 12a57.025 57.025 0 0 1-17 1.5c3.519-3.193 6.186-7.026 8-11.5l-1-1c2.578-6.723 2.578-13.723 0-21a24.967 24.967 0 0 0 .5-11.5 82.049 82.049 0 0 1-3-11 11.532 11.532 0 0 0-3.5-4.5 44.774 44.774 0 0 0-11-3c-1.563-1.947-3.563-3.114-6-3.5-.107-2.403.893-4.236 3-5.5-2.5-1.818-4.166-4.152-5-7a78.682 78.682 0 0 1 6-9.5 75.78 75.78 0 0 0-6-8.5 713.273 713.273 0 0 1 10.5-23.5c5.109-4.27 9.275-9.27 12.5-15l7-3.5c4.89-.06 9.557-1.06 14-3a103.499 103.499 0 0 0 10-10c-1.36-1.938-1.027-3.604 1-5 7.842-1.176 12.342-5.676 13.5-13.5 1.34-10.011-2.326-17.677-11-23a265.92 265.92 0 0 1-14-2c-2.184.608-4.184-.059-6-2l-1 1c-.96-3.133-1.793-6.3-2.5-9.5 1.219-4.092 2.219-7.926 3-11.5a188.29 188.29 0 0 1-14.5-11 159.943 159.943 0 0 0-15.5 4.5c-3.861 3.254-6.028 7.421-6.5 12.5a260.089 260.089 0 0 1-26.5 15c-1.216-.502-2.383-.835-3.5-1-2.8.625-5.634 1.292-8.5 2a284.679 284.679 0 0 1-7.5 29c-5.166 6.5-11.333 7.666-18.5 3.5 2.849-2.559 3.683-5.726 2.5-9.5a84.86 84.86 0 0 1-10.5-11.5 240.862 240.862 0 0 1-4-13 54.856 54.856 0 0 1-12-9.5 59.659 59.659 0 0 1-9 5l-6-1.5a46.081 46.081 0 0 0-6-5.5c.177-4.864-.49-9.864-2-15 3.251-10.985 3.418-21.985.5-33-1.008-1.759-2.508-2.926-4.5-3.5-4.229.201-7.896-.966-11-3.5 1.009-4.352 2.842-8.352 5.5-12a130.631 130.631 0 0 0 21-26 115.306 115.306 0 0 1 12-26 192.483 192.483 0 0 0 25-32c4.798-14.463 14.131-24.796 28-31 3.393.848 6.726 1.848 10 3 7.476-2.156 13.976-5.99 19.5-11.5a133.386 133.386 0 0 1 12-5 493.319 493.319 0 0 1 6-6c4.703-4.474 10.036-5.474 16-3a73.62 73.62 0 0 0 10 5.5z" />
    <path style="opacity:1" fill="#d9cabb"
        d="M57.5 70.5a58.694 58.694 0 0 0 6.5 3c3.502-1.543 6.17-.543 8 3a49.248 49.248 0 0 1 0 14c-2.717 6.884-7.55 11.551-14.5 14v-34z" />
    <path style="opacity:1" fill="#b6c3ad"
        d="M480.5 129.5a13.116 13.116 0 0 0-7 1c.363.683.696 1.35 1 2a44.65 44.65 0 0 0-14 6.5l-22 18a205.799 205.799 0 0 1-21 9 1537.166 1537.166 0 0 0-15 15 47.848 47.848 0 0 1-8 4.5 14.698 14.698 0 0 1-3.5-3 91.988 91.988 0 0 0-3-9 203.814 203.814 0 0 1-16.5-17.5 254.707 254.707 0 0 1-20.5-17.5l-18-26a968.963 968.963 0 0 1-26.5-25c2.361-3.36 5.361-6.026 9-8a305.28 305.28 0 0 0 24 4.5 198.262 198.262 0 0 1 17 8 109.329 109.329 0 0 0 13 15c4.603 2.769 9.603 4.269 15 4.5 7.483-2.909 15.15-3.576 23-2a100.723 100.723 0 0 1 20.5-3 286.282 286.282 0 0 0 27.5 2.5l19 13c2.594 2.086 4.594 4.586 6 7.5z" />
    <path style="opacity:1" fill="#786d61"
        d="m302.5 85.5 4 2a968.963 968.963 0 0 0 26.5 25l18 26a254.707 254.707 0 0 0 20.5 17.5 203.814 203.814 0 0 0 16.5 17.5 91.988 91.988 0 0 1 3 9 14.698 14.698 0 0 0 3.5 3 53.858 53.858 0 0 1-4 9l-8 4c1.437 1.521 2.104 3.355 2 5.5a64.849 64.849 0 0 0-3 14.5 175.86 175.86 0 0 0 3.5 18c-1.098 13.981 1.236 27.314 7 40a36.427 36.427 0 0 0 8.5 5c-1.776 22.318.057 44.318 5.5 66a152.9 152.9 0 0 1 7 15c.193 5.25.693 10.417 1.5 15.5-.752.671-1.086 1.504-1 2.5a19.552 19.552 0 0 0-4 3.5 45.984 45.984 0 0 0-10 2 42.688 42.688 0 0 1-15 8.5 4.457 4.457 0 0 1-1.5-2 1283.618 1283.618 0 0 1-3-20c-.808-4.957-3.141-8.957-7-12a672.398 672.398 0 0 0-4-19c-2.423-2.74-3.256-5.74-2.5-9a52.355 52.355 0 0 0-3-12.5c1.544-6.811.044-13.311-4.5-19.5a101.699 101.699 0 0 0-5.5-31c1.632-5.547 1.132-10.881-1.5-16-.411-4.956-.245-9.623.5-14a58.61 58.61 0 0 0-2.5-12c-7.116-6.059-14.45-6.392-22-1a464.856 464.856 0 0 0-6.5 12.5c-9.032.665-18.032.332-27-1l-2.5-2.5c-.828-7.514.339-14.68 3.5-21.5a117.917 117.917 0 0 0-2.5-12.5c-2.349-1.34-4.683-2.674-7-4-4.423 2.83-9.256 3.663-14.5 2.5a348.61 348.61 0 0 0-15-16.5c2.274-2.213 3.774-4.879 4.5-8a348.657 348.657 0 0 0 2.5-16.5 12.14 12.14 0 0 0-3.5-4.5c-.667-1.333-.667-2.667 0-4 2.833-3.5 6-6.667 9.5-9.5 4.123-.112 7.29-1.945 9.5-5.5a2488.527 2488.527 0 0 1 4-20 34.706 34.706 0 0 1 6.5-7.5 28.977 28.977 0 0 1-9-9c1.555-2.465 3.555-2.965 6-1.5 6.203-2.873 11.536-6.873 16-12z" />
    <path style="opacity:1" fill="#b6baa4"
        d="M546.5 102.5c6.563-.091 12.563 1.742 18 5.5a70.59 70.59 0 0 0 16 15.5l2.5 5c.956-1.394 2.289-2.061 4-2 13.213-.953 24.713 2.88 34.5 11.5l9 1.5a153.715 153.715 0 0 1 5 11c9.996 7.164 18.829 15.498 26.5 25 3.093 6.349 4.093 13.015 3 20l-5 5-1-1a29.517 29.517 0 0 1-4.5 2.5c-8.411.571-16.578.404-24.5-.5-3.33 1.544-6.664 1.877-10 1a479.881 479.881 0 0 0-34.5 3c-5.592.251-11.092-.749-16.5-3-4.15.219-7.817 1.552-11 4a11.123 11.123 0 0 1-2.5-1c-1.686-16.808-9.353-29.975-23-39.5-3.715-4.896-8.381-8.396-14-10.5a49.056 49.056 0 0 0-8-5.5 246.412 246.412 0 0 0-16-16c-6.544-2.568-13.211-3.068-20-1.5a43.836 43.836 0 0 0-1-2 13.116 13.116 0 0 1 7-1 143.883 143.883 0 0 1 22-17.5 119.597 119.597 0 0 0 16-2 285.336 285.336 0 0 1 28-7.5z" />
    <path style="opacity:1" fill="#b5ab96"
        d="M769.5 133.5c3.831 13.631 7.665 27.297 11.5 41 .294 11.269 4.627 20.603 13 28 2.299 5.854 3.632 11.854 4 18-2.316.996-4.65 1.996-7 3-1.261-.259-2.261-.926-3-2-4.812 4.041-10.145 6.041-16 6a11.532 11.532 0 0 1-4.5 3.5 193.448 193.448 0 0 0-18 6.5 407.571 407.571 0 0 0-25-4 463.44 463.44 0 0 0-47 6.5c-4.935 5.19-5.268 10.69-1 16.5a3.647 3.647 0 0 1-1 1.5l-6 1c-1.098.77-1.098 1.603 0 2.5-9.555 3.712-17.222 9.879-23 18.5a11.532 11.532 0 0 0-4.5 3.5c-.718-.951-1.551-1.117-2.5-.5-3.357 4.373-7.524 7.54-12.5 9.5a66.364 66.364 0 0 1-9.5-2.5c-6.48-9.978-14.48-18.478-24-25.5-1.475-1.91-3.475-3.076-6-3.5a35.633 35.633 0 0 0-13 .5c-1.874.11-3.374-.556-4.5-2a91.554 91.554 0 0 0-6-14c-1.196-9.921-4.196-19.254-9-28-.357-4.01-.19-8.01.5-12 .765.423 1.598.757 2.5 1 3.183-2.448 6.85-3.781 11-4 5.408 2.251 10.908 3.251 16.5 3a479.881 479.881 0 0 1 34.5-3c3.336.877 6.67.544 10-1 7.922.904 16.089 1.071 24.5.5a29.517 29.517 0 0 0 4.5-2.5l1 1 5-5c1.093-6.985.093-13.651-3-20-7.671-9.502-16.504-17.836-26.5-25a153.715 153.715 0 0 0-5-11 223.492 223.492 0 0 1 20-1.5l8.5-8.5c3.66 1.713 7.493 2.213 11.5 1.5a91.836 91.836 0 0 0 16-11.5 12.93 12.93 0 0 0 5-.5 82.682 82.682 0 0 1 15-6 145.24 145.24 0 0 0 16.5-1.5c7.548 1.068 14.048 4.235 19.5 9.5-1.376 2.54-.71 4.54 2 6a138.504 138.504 0 0 1 20 3c1.289 1.802 2.956 2.969 5 3.5z" />
    <path style="opacity:1" fill="#c6b29c"
        d="M799.5 111.5a108.624 108.624 0 0 1 10.5 5c1.293 4.082.126 7.249-3.5 9.5 2.347.712 4.347 1.879 6 3.5 13.297-.079 24.297 4.754 33 14.5a473.88 473.88 0 0 1 21 4.5c1.647.778 2.98 1.944 4 3.5a269.937 269.937 0 0 0 13 3c7.665 4.673 15.999 7.673 25 9 5.727 3.857 12.061 6.357 19 7.5a10.756 10.756 0 0 0 3-2.5 37.291 37.291 0 0 0 7-.5l6 5a6.846 6.846 0 0 1 4-1c-.535-6.873.299-13.54 2.5-20 4.238-5.429 9.405-9.429 15.5-12v70c-26.367-2.9-46.2 7.1-59.5 30a67.307 67.307 0 0 1-4 14c-10.787 7.544-19.787 16.877-27 28a12.494 12.494 0 0 0 0 7l7 9c.984 5.489.151 10.655-2.5 15.5-1.667.667-3.333.667-5 0-8.482-6.838-17.148-7.171-26-1l-12 12c-2.15 1.411-4.484 2.245-7 2.5a8.43 8.43 0 0 1-4-.5c-3.218-2.777-6.885-4.777-11-6l-17-1c-11.396-6.068-22.729-5.902-34 .5-7.29-1.942-14.623-2.442-22-1.5a1096.764 1096.764 0 0 0-18.5-25.5 85.684 85.684 0 0 0-17.5-13.5 148.31 148.31 0 0 1-14-15c-6.8-4.434-14.133-5.601-22-3.5-1.098-.897-1.098-1.73 0-2.5l6-1a3.647 3.647 0 0 0 1-1.5c-4.268-5.81-3.935-11.31 1-16.5a463.44 463.44 0 0 1 47-6.5 407.571 407.571 0 0 1 25 4 193.448 193.448 0 0 1 18-6.5 11.532 11.532 0 0 0 4.5-3.5c5.855.041 11.188-1.959 16-6 .739 1.074 1.739 1.741 3 2 2.35-1.004 4.684-2.004 7-3-.368-6.146-1.701-12.146-4-18-8.373-7.397-12.706-16.731-13-28a38761.142 38761.142 0 0 0-11.5-41 58.746 58.746 0 0 1 2.5-7c6.511-5.281 14.011-7.781 22.5-7.5.309-3.429 1.976-5.929 5-7.5z" />
    <path style="opacity:1" fill="#7e7467"
        d="M518.5 155.5a111.925 111.925 0 0 0-9 22 20.702 20.702 0 0 0 1.5 7c6.425 8.922 8.925 18.756 7.5 29.5 1.586 12.205 2.586 24.205 3 36-3.769 6.349-3.936 12.849-.5 19.5a76.984 76.984 0 0 0 6.5 10 202.562 202.562 0 0 0-28 26c-3.659 1.827-7.326 2.66-11 2.5a17.842 17.842 0 0 1-4.5 5.5c-.332 3.847-1.498 7.347-3.5 10.5l1 1a186.9 186.9 0 0 1-25.5 7.5c-5.79-4.308-12.29-7.141-19.5-8.5l-2.5-2.5a349.825 349.825 0 0 0-5-16c-5.335-2.836-9.502-6.836-12.5-12 1.044-2.268 1.211-4.601.5-7l-6-6-9 2c-.383-.556-.883-.889-1.5-1a36.427 36.427 0 0 1-8.5-5c-5.764-12.686-8.098-26.019-7-40a175.86 175.86 0 0 1-3.5-18 64.849 64.849 0 0 1 3-14.5c.104-2.145-.563-3.979-2-5.5l8-4a53.858 53.858 0 0 0 4-9 47.848 47.848 0 0 0 8-4.5 1537.166 1537.166 0 0 1 15-15 205.799 205.799 0 0 0 21-9l22-18a44.65 44.65 0 0 1 14-6.5c6.789-1.568 13.456-1.068 20 1.5a246.412 246.412 0 0 1 16 16 49.056 49.056 0 0 1 8 5.5z" />
    <path style="opacity:1" fill="#b2b8a2"
        d="M518.5 155.5c5.619 2.104 10.285 5.604 14 10.5 13.647 9.525 21.314 22.692 23 39.5-.69 3.99-.857 7.99-.5 12 4.804 8.746 7.804 18.079 9 28a91.554 91.554 0 0 1 6 14c1.126 1.444 2.626 2.11 4.5 2a35.633 35.633 0 0 1 13-.5c2.525.424 4.525 1.59 6 3.5a4.934 4.934 0 0 0 .5 3 373.002 373.002 0 0 1 22.5 23.5l-7 7a70.677 70.677 0 0 0-12.5 3.5c-1.57-.17-3.403-.503-5.5-1-8.563-1.567-16.397.433-23.5 6-.323 12.643-3.323 24.643-9 36-3.04 3.466-6.874 4.8-11.5 4a153.523 153.523 0 0 0-8.5-20 69.474 69.474 0 0 1 2.5-26c-2.912-8.154-7.579-15.154-14-21a76.984 76.984 0 0 1-6.5-10c-3.436-6.651-3.269-13.151.5-19.5-.414-11.795-1.414-23.795-3-36 1.425-10.744-1.075-20.578-7.5-29.5a20.702 20.702 0 0 1-1.5-7 111.925 111.925 0 0 1 9-22z" />
    <path style="opacity:1" fill="#967f74"
        d="M57.5 170.5a637.116 637.116 0 0 1 23 8.5c7.167 8.5 15 16.333 23.5 23.5a91.836 91.836 0 0 0 11.5 16 31.543 31.543 0 0 1 2.5 9 246.83 246.83 0 0 0 2.5 22 90.182 90.182 0 0 1-3.5 15c-2.719.944-5.552 1.277-8.5 1-1.129 5.248-4.462 7.581-10 7-3.342.019-6.509-.648-9.5-2l-1 1-3.5-3.5a240.482 240.482 0 0 1-13.5-2.5c-2.151.143-3.818 1.143-5 3-2.275-2.449-5.108-3.783-8.5-4v-94z" />
    <path style="opacity:1" fill="#987c6f"
        d="M965.5 210.5v238c-10.611-1.445-21.111-.778-31.5 2-11.118-3.101-20.785-.768-29 7-.475 5.059-2.642 9.226-6.5 12.5-2.932.272-5.432 1.438-7.5 3.5-.353 3.039-1.52 5.705-3.5 8 2.071 2.43 2.404 5.097 1 8-5.618 4.115-9.951 9.282-13 15.5-6.905.741-13.572 2.241-20 4.5-3.408-1.191-6.241-3.191-8.5-6 1.276-3.388.443-6.221-2.5-8.5-5.291-1.783-10.624-2.283-16-1.5a202.394 202.394 0 0 1-3-17.5c.403-2.641 1.403-4.974 3-7-2.167-3.5-5-6.333-8.5-8.5-2.868.594-6.035.927-9.5 1-.367-2.354-.867-5.021-1.5-8l-2.5-2.5a60.931 60.931 0 0 1 11-.5 257.87 257.87 0 0 0 24-3c10.5 3.398 20 1.731 28.5-5 .788-4.909 3.121-8.909 7-12a166.014 166.014 0 0 0 7.5-18.5 73.511 73.511 0 0 0-3-10.5 31.71 31.71 0 0 0-6-2 37.683 37.683 0 0 1-9 5 37.577 37.577 0 0 1-10.5-3 7.248 7.248 0 0 1-2.5 2c-3.372-1.407-7.206-2.073-11.5-2-3.261-.194-6.261.472-9 2-2.272-1.242-4.106-2.908-5.5-5-5.245-3.735-10.079-8.068-14.5-13a3.647 3.647 0 0 1-1.5 1 106.042 106.042 0 0 1-22-3.5 108.03 108.03 0 0 0-8-9.5 117.876 117.876 0 0 1 17-23.5c4.667-2 9.333-2 14 0 8.451 6.706 13.618 4.539 15.5-6.5.323-5.366.823-10.699 1.5-16 2.516-.255 4.85-1.089 7-2.5l12-12c8.852-6.171 17.518-5.838 26 1 1.667.667 3.333.667 5 0 2.651-4.845 3.484-10.011 2.5-15.5l-7-9a12.494 12.494 0 0 1 0-7c7.213-11.123 16.213-20.456 27-28a67.307 67.307 0 0 0 4-14c13.3-22.9 33.133-32.9 59.5-30z" />
    <path style="opacity:1" fill="#af9b90"
        d="M122.5 210.5c3.104 2.534 6.771 3.701 11 3.5 1.992.574 3.492 1.741 4.5 3.5 2.918 11.015 2.751 22.015-.5 33 1.51 5.136 2.177 10.136 2 15a298.414 298.414 0 0 0-4.5 13 40.349 40.349 0 0 0 .5 14 534.148 534.148 0 0 0-3 30.5l1 1c-2.795 6.516-3.295 13.349-1.5 20.5a19.887 19.887 0 0 1 3.5 4c-7.051 4.989-11.051 11.489-12 19.5a71.583 71.583 0 0 0-8.5 11.5c-.667 3-.667 6 0 9a442.818 442.818 0 0 0 7.5 25.5 248.833 248.833 0 0 0-4.5 23.5 46.081 46.081 0 0 0-5.5 6 153.226 153.226 0 0 1-35-10.5l-7.5-7.5a34.03 34.03 0 0 0-6.5-10.5 10.1 10.1 0 0 0-6-1.5v-149c3.392.217 6.225 1.551 8.5 4 1.182-1.857 2.849-2.857 5-3 4.476.962 8.976 1.795 13.5 2.5l3.5 3.5 1-1c2.991 1.352 6.158 2.019 9.5 2 5.538.581 8.871-1.752 10-7 2.948.277 5.781-.056 8.5-1a90.182 90.182 0 0 0 3.5-15 246.83 246.83 0 0 1-2.5-22 31.543 31.543 0 0 0-2.5-9c4.444-.78 6.778-3.446 7-8z" />
    <path style="opacity:1" fill="#91877c"
        d="M250.5 407.5c-7.303 1.139-11.47 5.472-12.5 13-2.066 2.47-4.733 3.804-8 4a75.803 75.803 0 0 1-18-9l-1-8a104.887 104.887 0 0 0-12-7c-2.574 2.527-5.74 3.694-9.5 3.5l-4 5c.457.414.791.914 1 1.5a161.822 161.822 0 0 0-14 7.5c-2.41 1.562-3.744 3.729-4 6.5-.332 12.694 4.001 23.36 13 32-3.456 4.899-8.123 8.065-14 9.5a144.942 144.942 0 0 1-23 1 218.912 218.912 0 0 0-13-14c-6.704-2.685-13.038-5.852-19-9.5a46.081 46.081 0 0 1 5.5-6 248.833 248.833 0 0 1 4.5-23.5 442.818 442.818 0 0 1-7.5-25.5c-.667-3-.667-6 0-9a71.583 71.583 0 0 1 8.5-11.5c.949-8.011 4.949-14.511 12-19.5a19.887 19.887 0 0 0-3.5-4c-1.795-7.151-1.295-13.984 1.5-20.5l-1-1a534.148 534.148 0 0 1 3-30.5 40.349 40.349 0 0 1-.5-14 298.414 298.414 0 0 1 4.5-13 46.081 46.081 0 0 1 6 5.5l6 1.5a59.659 59.659 0 0 0 9-5 54.856 54.856 0 0 0 12 9.5 240.862 240.862 0 0 0 4 13 84.86 84.86 0 0 0 10.5 11.5c1.183 3.774.349 6.941-2.5 9.5 7.167 4.166 13.334 3 18.5-3.5a284.679 284.679 0 0 0 7.5-29c2.866-.708 5.7-1.375 8.5-2 1.117.165 2.284.498 3.5 1a260.089 260.089 0 0 0 26.5-15c.472-5.079 2.639-9.246 6.5-12.5a159.943 159.943 0 0 1 15.5-4.5 188.29 188.29 0 0 0 14.5 11c-.781 3.574-1.781 7.408-3 11.5.707 3.2 1.54 6.367 2.5 9.5l1-1c1.816 1.941 3.816 2.608 6 2a265.92 265.92 0 0 0 14 2c8.674 5.323 12.34 12.989 11 23-1.158 7.824-5.658 12.324-13.5 13.5-2.027 1.396-2.36 3.062-1 5a103.499 103.499 0 0 1-10 10c-4.443 1.94-9.11 2.94-14 3l-7 3.5c-3.225 5.73-7.391 10.73-12.5 15a713.273 713.273 0 0 0-10.5 23.5 75.78 75.78 0 0 1 6 8.5 78.682 78.682 0 0 0-6 9.5c.834 2.848 2.5 5.182 5 7-2.107 1.264-3.107 3.097-3 5.5z" />
    <path style="opacity:1" fill="#aa9786"
        d="M829.5 327.5a240.173 240.173 0 0 0-1.5 16c-1.882 11.039-7.049 13.206-15.5 6.5-4.667-2-9.333-2-14 0a117.876 117.876 0 0 0-17 23.5 108.03 108.03 0 0 1 8 9.5 106.042 106.042 0 0 0 22 3.5 3.647 3.647 0 0 0 1.5-1c4.421 4.932 9.255 9.265 14.5 13-3.848 4.355-6.681 9.355-8.5 15a69.853 69.853 0 0 1-5.5 18.5c1.741 5.811 3.074 11.978 4 18.5a60.931 60.931 0 0 0-11 .5l2.5 2.5c.633 2.979 1.133 5.646 1.5 8a1612.327 1612.327 0 0 0-7 6 38.929 38.929 0 0 1-5.5-5l-2 2c-3.047-.745-6.047-1.078-9-1a34.041 34.041 0 0 1-7.5 1.5c-4 2.667-7.333 6-10 10-5.03.271-10.03.771-15 1.5a4.933 4.933 0 0 1-2.5-1 195.317 195.317 0 0 0-18 6l-15.5-4.5c-8.315-5.046-16.981-8.212-26-9.5-5.563-3.48-11.563-6.314-18-8.5 4.193-2.835 6.693-6.669 7.5-11.5 3.336-2.934 4.336-6.6 3-11a23.663 23.663 0 0 0-2.5-6 35.64 35.64 0 0 1 8.5-7 37.885 37.885 0 0 1 6-10c.515-6.435-.152-12.769-2-19a61.243 61.243 0 0 1-5.5-16.5c2.394-1.952 3.894-4.452 4.5-7.5 1.56-6.87.06-12.87-4.5-18-6.519-3.013-13.185-3.846-20-2.5l-3.5 3.5c-1.332 5.992-2.666 11.992-4 18-3.941 4.286-6.608 9.286-8 15-10.093 6.539-18.759 5.205-26-4a82.927 82.927 0 0 1-7-14 2168.032 2168.032 0 0 0-7.5-31.5c1.464-6.7-.203-12.533-5-17.5a58.808 58.808 0 0 1-10.5-7 92.08 92.08 0 0 0-6.5-12c2.097.497 3.93.83 5.5 1a70.677 70.677 0 0 1 12.5-3.5l7-7a373.002 373.002 0 0 0-22.5-23.5 4.934 4.934 0 0 1-.5-3c9.52 7.022 17.52 15.522 24 25.5a66.364 66.364 0 0 0 9.5 2.5c4.976-1.96 9.143-5.127 12.5-9.5.949-.617 1.782-.451 2.5.5a11.532 11.532 0 0 1 4.5-3.5c5.778-8.621 13.445-14.788 23-18.5 7.867-2.101 15.2-.934 22 3.5a148.31 148.31 0 0 0 14 15 85.684 85.684 0 0 1 17.5 13.5 1096.764 1096.764 0 0 1 18.5 25.5c7.377-.942 14.71-.442 22 1.5 11.271-6.402 22.604-6.568 34-.5l17 1c4.115 1.223 7.782 3.223 11 6a8.43 8.43 0 0 0 4 .5z" />
    <path style="opacity:1" fill="#81766c"
        d="M527.5 279.5c6.421 5.846 11.088 12.846 14 21a69.474 69.474 0 0 0-2.5 26 153.523 153.523 0 0 1 8.5 20c-1.14 7.94.193 15.44 4 22.5l-1 1a64.783 64.783 0 0 0 8 11 169.415 169.415 0 0 0-4 11c1.135 4.748 1.302 9.581.5 14.5a565.562 565.562 0 0 1-5.5 18c-.617-.111-1.117-.444-1.5-1-1.101 1.894-2.434 2.561-4 2-2.488-1.147-4.488-2.814-6-5l-1.5-6c4.885-9.613 3.218-17.779-5-24.5a8863.63 8863.63 0 0 1-13.5-6.5l-3.5 3.5-10 1a11.532 11.532 0 0 0-4.5 3.5c-.522-7.684-4.689-11.351-12.5-11a10.413 10.413 0 0 0-5 1.5c-8.171 10.015-10.171 21.182-6 33.5-.719 2.228-2.052 4.061-4 5.5-3.736.61-7.403.277-11-1-4.435-4.948-9.769-8.448-16-10.5a3.647 3.647 0 0 0-1.5 1 122.513 122.513 0 0 0-20.5-11c-.683.363-1.35.696-2 1a128.149 128.149 0 0 0-8-20c-.086-.996.248-1.829 1-2.5a128.987 128.987 0 0 1-1.5-15.5 152.9 152.9 0 0 0-7-15c-5.443-21.682-7.276-43.682-5.5-66 .617.111 1.117.444 1.5 1l9-2 6 6c.711 2.399.544 4.732-.5 7 2.998 5.164 7.165 9.164 12.5 12a349.825 349.825 0 0 1 5 16l2.5 2.5c7.21 1.359 13.71 4.192 19.5 8.5a186.9 186.9 0 0 0 25.5-7.5l-1-1c2.002-3.153 3.168-6.653 3.5-10.5a17.842 17.842 0 0 0 4.5-5.5c3.674.16 7.341-.673 11-2.5a202.562 202.562 0 0 1 28-26z" />
    <path style="opacity:1" fill="#a19787"
        d="M591.5 300.5a92.08 92.08 0 0 1 6.5 12 58.808 58.808 0 0 0 10.5 7c4.797 4.967 6.464 10.8 5 17.5 2.57 10.446 5.07 20.946 7.5 31.5a82.927 82.927 0 0 0 7 14c7.241 9.205 15.907 10.539 26 4 1.392-5.714 4.059-10.714 8-15 1.334-6.008 2.668-12.008 4-18l3.5-3.5c6.815-1.346 13.481-.513 20 2.5 4.56 5.13 6.06 11.13 4.5 18-.606 3.048-2.106 5.548-4.5 7.5a61.243 61.243 0 0 0 5.5 16.5c1.848 6.231 2.515 12.565 2 19a37.885 37.885 0 0 0-6 10 35.64 35.64 0 0 0-8.5 7 23.663 23.663 0 0 1 2.5 6c1.336 4.4.336 8.066-3 11-.807 4.831-3.307 8.665-7.5 11.5 6.437 2.186 12.437 5.02 18 8.5a31.447 31.447 0 0 1-4.5 5 156.422 156.422 0 0 0 0 25l2 2c.667 6 .667 12 0 18a9760.61 9760.61 0 0 1-6 15c-.417 1.256-1.25 1.923-2.5 2-7.551.554-14.885-.113-22-2a45.863 45.863 0 0 1-11 8.5 280.046 280.046 0 0 1-29.5 4.5 6.293 6.293 0 0 1-3-1c-1.758 2.265-3.925 3.932-6.5 5-1.134-13.465-8.467-19.798-22-19-2.985-3.885-2.651-7.385 1-10.5 16.128 2.202 23.295-4.632 21.5-20.5a265.115 265.115 0 0 1-4-20 229.01 229.01 0 0 0-22-13c-8.773 1.112-17.606 1.112-26.5 0a51.198 51.198 0 0 1-10-13c2.949-9.526 3.616-19.192 2-29a565.562 565.562 0 0 0 5.5-18c.802-4.919.635-9.752-.5-14.5a169.415 169.415 0 0 1 4-11 64.783 64.783 0 0 1-8-11l1-1c-3.807-7.06-5.14-14.56-4-22.5 4.626.8 8.46-.534 11.5-4 5.677-11.357 8.677-23.357 9-36 7.103-5.567 14.937-7.567 23.5-6z" />
    <path style="opacity:1" fill="#8e897d"
        d="M549.5 424.5c1.616 9.808.949 19.474-2 29a51.198 51.198 0 0 0 10 13c-4.728 1.226-9.395 3.393-14 6.5a411.253 411.253 0 0 1-19 5.5c-9.187-2.089-17.853-5.589-26-10.5a30.485 30.485 0 0 0-11 0 153.054 153.054 0 0 0-15 7 32.614 32.614 0 0 1-10 1.5 3675.188 3675.188 0 0 0-22-1.5 111.33 111.33 0 0 1-12-7.5 589.926 589.926 0 0 0-7-28.5 18.08 18.08 0 0 0 2-3.5 123.589 123.589 0 0 1-6-8.5 71.744 71.744 0 0 1 5-8.5c-2.186-5.917-2.519-11.917-1-18 .65-.304 1.317-.637 2-1a122.513 122.513 0 0 1 20.5 11 3.647 3.647 0 0 1 1.5-1c6.231 2.052 11.565 5.552 16 10.5 3.597 1.277 7.264 1.61 11 1 1.948-1.439 3.281-3.272 4-5.5-4.171-12.318-2.171-23.485 6-33.5a10.413 10.413 0 0 1 5-1.5c7.811-.351 11.978 3.316 12.5 11a11.532 11.532 0 0 1 4.5-3.5l10-1 3.5-3.5a8863.63 8863.63 0 0 0 13.5 6.5c8.218 6.721 9.885 14.887 5 24.5l1.5 6c1.512 2.186 3.512 3.853 6 5 1.566.561 2.899-.106 4-2 .383.556.883.889 1.5 1z" />
    <path style="opacity:1" fill="#a3897c"
        d="M827.5 398.5c1.394 2.092 3.228 3.758 5.5 5 2.739-1.528 5.739-2.194 9-2 4.294-.073 8.128.593 11.5 2a7.248 7.248 0 0 0 2.5-2 37.577 37.577 0 0 0 10.5 3 37.683 37.683 0 0 0 9-5 31.71 31.71 0 0 1 6 2 73.511 73.511 0 0 1 3 10.5 166.014 166.014 0 0 1-7.5 18.5c-3.879 3.091-6.212 7.091-7 12-8.5 6.731-18 8.398-28.5 5a257.87 257.87 0 0 1-24 3c-.926-6.522-2.259-12.689-4-18.5a69.853 69.853 0 0 0 5.5-18.5c1.819-5.645 4.652-10.645 8.5-15z" />
    <path style="opacity:1" fill="#948d82"
        d="M250.5 407.5c2.437.386 4.437 1.553 6 3.5a44.774 44.774 0 0 1 11 3 11.532 11.532 0 0 1 3.5 4.5 82.049 82.049 0 0 0 3 11 24.967 24.967 0 0 1-.5 11.5c2.578 7.277 2.578 14.277 0 21l1 1c-1.814 4.474-4.481 8.307-8 11.5-8.382-1.361-15.049-5.527-20-12.5-10.121-4.717-20.788-6.717-32-6-10.991-3.925-21.991-3.758-33 .5-8.999-8.64-13.332-19.306-13-32 .256-2.771 1.59-4.938 4-6.5 4.564-2.74 9.231-5.24 14-7.5a3.647 3.647 0 0 0-1-1.5l4-5c3.76.194 6.926-.973 9.5-3.5 4.209 2.1 8.209 4.433 12 7l1 8a75.803 75.803 0 0 0 18 9c3.267-.196 5.934-1.53 8-4 1.03-7.528 5.197-11.861 12.5-13z" />
    <path style="opacity:1" fill="#6b554c"
        d="M57.5 413.5a10.1 10.1 0 0 1 6 1.5 34.03 34.03 0 0 1 6.5 10.5l7.5 7.5a153.226 153.226 0 0 0 35 10.5c5.962 3.648 12.296 6.815 19 9.5a218.912 218.912 0 0 1 13 14c7.678.277 15.344-.056 23-1 5.877-1.435 10.544-4.601 14-9.5 11.009-4.258 22.009-4.425 33-.5 11.212-.717 21.879 1.283 32 6 4.951 6.973 11.618 11.139 20 12.5a57.025 57.025 0 0 0 17-1.5l18-12a162.154 162.154 0 0 1 8.5-2.5 128.738 128.738 0 0 1 16.5 8.5c3.43.956 6.93 1.456 10.5 1.5a225.378 225.378 0 0 0 20.5-4c16.009 2.337 32.009 4.67 48 7a58.913 58.913 0 0 0 15.5-4c2.288.237 4.788.237 7.5 0a111.33 111.33 0 0 0 12 7.5c7.335.478 14.668.978 22 1.5a32.614 32.614 0 0 0 10-1.5c4.88-2.607 9.88-4.94 15-7a30.485 30.485 0 0 1 11 0c8.147 4.911 16.813 8.411 26 10.5a19.177 19.177 0 0 0 2.5 5 84.8 84.8 0 0 0 1.5 10.5 96.314 96.314 0 0 0-8.5 26.5 34.706 34.706 0 0 1-6.5 7.5 253.096 253.096 0 0 0-22 2.5 381.705 381.705 0 0 1-39.5-5c-1.605.601-2.938 1.601-4 3-4.092-.076-7.259-1.743-9.5-5 1.839-1.008 3.172-2.508 4-4.5.03-3.966-.136-8.133-.5-12.5a51.223 51.223 0 0 1-11.5-12.5 36.16 36.16 0 0 1-7-4c-9.467.82-18.467 3.486-27 8l-4.5 4.5c-6.45-1.28-12.95-1.28-19.5 0a1651.788 1651.788 0 0 1-31-9.5 34.638 34.638 0 0 0-8.5-4.5 113.709 113.709 0 0 0-23.5 7.5c-3.402 1.4-6.236 3.567-8.5 6.5a75.117 75.117 0 0 0-6.5 17 23.597 23.597 0 0 0 2.5 6 63.707 63.707 0 0 1 6.5 7 1904.366 1904.366 0 0 0-62 5.5c-10.214.959-19.547 4.293-28 10a64.7 64.7 0 0 1-23 2 88.876 88.876 0 0 0-18-4.5 188.028 188.028 0 0 1-18.5 4 121.189 121.189 0 0 0-23.5-1.5 58.754 58.754 0 0 1-18 4c-3.856 2.842-8.19 4.509-13 5-8.883.568-17.716.068-26.5-1.5-5.14.94-10.306 1.607-15.5 2v-144z" />
    <path style="opacity:1" fill="#8d6f65"
        d="M965.5 448.5v224c-8.822.493-17.156 2.493-25 6-11.961-3.269-16.961-10.936-15-23a28.043 28.043 0 0 1-1.5-5 229.57 229.57 0 0 1-11.5-14 18.08 18.08 0 0 0-3.5 2c-4.274-.388-8.608.279-13 2-1.537-.535-3.037-.868-4.5-1-.999-5.322-1.999-10.655-3-16 .192-5.048 2.025-9.381 5.5-13 .851-2.708 1.351-5.208 1.5-7.5a75.95 75.95 0 0 0-3.5-7.5 121.216 121.216 0 0 0-5-26c-.93-2.862-2.597-5.195-5-7a46.837 46.837 0 0 1-4-11 14.506 14.506 0 0 1-4-5c-8.968 2.603-15.468-.563-19.5-9.5-5.721-1.092-11.054-3.092-16-6-2-.667-4-.667-6 0a63.707 63.707 0 0 1-7 6.5c-1.813-3.337-2.813-7.004-3-11 .821-8.872 1.654-17.539 2.5-26l3.5-7c5.376-.783 10.709-.283 16 1.5 2.943 2.279 3.776 5.112 2.5 8.5 2.259 2.809 5.092 4.809 8.5 6 6.428-2.259 13.095-3.759 20-4.5 3.049-6.218 7.382-11.385 13-15.5 1.404-2.903 1.071-5.57-1-8 1.98-2.295 3.147-4.961 3.5-8 2.068-2.062 4.568-3.228 7.5-3.5 3.858-3.274 6.025-7.441 6.5-12.5 8.215-7.768 17.882-10.101 29-7 10.389-2.778 20.889-3.445 31.5-2z" />
    <path style="opacity:1" fill="#beab97"
        d="m828.5 493.5-3.5 7a3540.575 3540.575 0 0 0-2.5 26c.187 3.996 1.187 7.663 3 11a162.6 162.6 0 0 1 8.5 16c-.194 10.97-2.194 21.636-6 32-5.016-3.547-9.35-2.547-13 3-6.846 10.215-11.346 21.382-13.5 33.5.451 6.574 3.451 11.574 9 15-.69 2.696-2.19 4.863-4.5 6.5a359.182 359.182 0 0 1-1.5 12.5 621.567 621.567 0 0 0 4 10l-6 6c3.637.959 6.803 2.792 9.5 5.5a354.499 354.499 0 0 1 6 17c5.475-8.142 12.309-14.975 20.5-20.5a998.761 998.761 0 0 0 40 2 4.457 4.457 0 0 0 2 1.5 21.754 21.754 0 0 0 7.5-6c4.062 4.676 5.562 10.01 4.5 16 .827 3.332 2.66 5.999 5.5 8a59.043 59.043 0 0 1 5 9 6.978 6.978 0 0 0 3.5 2.5 70.201 70.201 0 0 0 21 3c4.679-2.661 8.846-6.161 12.5-10.5 3.722-.744 7.555-2.077 11.5-4a210.447 210.447 0 0 0 12 12.5c-2.618 2.106-4.618 4.606-6 7.5h-178a211.773 211.773 0 0 1-3-15.5c1.067-6.179 1.9-12.012 2.5-17.5-3.8-.699-7.633-1.365-11.5-2-3.286 2.328-5.952 2.162-8-.5a219.124 219.124 0 0 0-17-10 16.242 16.242 0 0 0-8 0c-9.805 15.563-23.805 23.896-42 25-5.667-1.243-11-3.076-16-5.5 1.872-1.545 2.872-3.545 3-6a110.424 110.424 0 0 1-3-10 14.972 14.972 0 0 1 3-3.5 54.53 54.53 0 0 1-6-6.5c2.579-2.635 5.579-4.801 9-6.5 6.423-4.864 7.923-11.03 4.5-18.5a39.806 39.806 0 0 1-7-8 133.243 133.243 0 0 0-2-21c-2.56-3.552-5.393-6.719-8.5-9.5a15.973 15.973 0 0 1 2-6c-1.601-5.253-.934-10.253 2-15-.259-1.261-.926-2.261-2-3l3.5-3.5a74.058 74.058 0 0 0 1.5-12c3.461.354 5.961-.979 7.5-4 1.354-7.804.521-15.138-2.5-22 1.25-.077 2.083-.744 2.5-2a9760.61 9760.61 0 0 0 6-15c.667-6 .667-12 0-18l-2-2a156.422 156.422 0 0 1 0-25 31.447 31.447 0 0 0 4.5-5c9.019 1.288 17.685 4.454 26 9.5l15.5 4.5a195.317 195.317 0 0 1 18-6 4.933 4.933 0 0 0 2.5 1c4.97-.729 9.97-1.229 15-1.5 2.667-4 6-7.333 10-10a34.041 34.041 0 0 0 7.5-1.5c2.953-.078 5.953.255 9 1l2-2a38.929 38.929 0 0 0 5.5 5c2.372-2.045 4.706-4.045 7-6 3.465-.073 6.632-.406 9.5-1 3.5 2.167 6.333 5 8.5 8.5-1.597 2.026-2.597 4.359-3 7a202.394 202.394 0 0 0 3 17.5z" />
    <path style="opacity:1" fill="#7b6f65"
        d="M557.5 466.5c8.894 1.112 17.727 1.112 26.5 0a229.01 229.01 0 0 1 22 13 265.115 265.115 0 0 0 4 20c1.795 15.868-5.372 22.702-21.5 20.5-3.651 3.115-3.985 6.615-1 10.5 13.533-.798 20.866 5.535 22 19-.555 5.175-2.555 9.675-6 13.5a72.232 72.232 0 0 0-18 14 189.677 189.677 0 0 1-18 7 17.842 17.842 0 0 0-4.5 5.5 97.76 97.76 0 0 0 1.5 14 67.886 67.886 0 0 0-1.5 22c6.618 11.517 5.951 22.517-2 33a547.49 547.49 0 0 1-2.5 9 103.962 103.962 0 0 0-8.5-5 17.712 17.712 0 0 0-5.5 4.5 26.67 26.67 0 0 0-6.5 1.5c-4.369-1.528-8.869-2.028-13.5-1.5-5.333 4.322-9.499 9.488-12.5 15.5a12.14 12.14 0 0 0-4.5 3.5c-3.96-.364-7.96-.864-12-1.5a62.952 62.952 0 0 0-12 2c-5.716-.723-10.383 1.277-14 6a25.513 25.513 0 0 0 4 4.5c-3.1 7.244-2.1 13.411 3 18.5h-66v-3c-1.629-6.496-1.962-12.996-1-19.5-2.084-3.428-2.417-7.095-1-11 .195-2.352-.472-4.352-2-6 3.014-3.678 6.014-7.345 9-11a74.297 74.297 0 0 1-5-16c4.291-5.419 6.791-11.585 7.5-18.5a36.16 36.16 0 0 1 4-7c.499-5.164 1.999-9.997 4.5-14.5-2.683-1.845-4.35-4.345-5-7.5a78.913 78.913 0 0 1 7.5-15c.798-8.713.464-17.38-1-26a95.356 95.356 0 0 0-8.5-8c4.246-1.943 5.913-5.276 5-10 .181-5.634-1.819-10.301-6-14a159.976 159.976 0 0 0 20-5c2.241 3.257 5.408 4.924 9.5 5 1.062-1.399 2.395-2.399 4-3a381.705 381.705 0 0 0 39.5 5 253.096 253.096 0 0 1 22-2.5 34.706 34.706 0 0 0 6.5-7.5 96.314 96.314 0 0 1 8.5-26.5 84.8 84.8 0 0 1-1.5-10.5 19.177 19.177 0 0 1-2.5-5 411.253 411.253 0 0 0 19-5.5c4.605-3.107 9.272-5.274 14-6.5z" />
    <path style="opacity:1" fill="#5c483e"
        d="M438.5 523.5a159.976 159.976 0 0 1-20 5 101.106 101.106 0 0 1-22.5-2c-4.18.753-8.347 1.587-12.5 2.5a419.913 419.913 0 0 0-37 2.5l-19-2a74.958 74.958 0 0 1-24 3 63.707 63.707 0 0 0-6.5-7 23.597 23.597 0 0 1-2.5-6 75.117 75.117 0 0 1 6.5-17c2.264-2.933 5.098-5.1 8.5-6.5a113.709 113.709 0 0 1 23.5-7.5 34.638 34.638 0 0 1 8.5 4.5 1651.788 1651.788 0 0 0 31 9.5c6.55-1.28 13.05-1.28 19.5 0l4.5-4.5c8.533-4.514 17.533-7.18 27-8a36.16 36.16 0 0 0 7 4 51.223 51.223 0 0 0 11.5 12.5c.364 4.367.53 8.534.5 12.5-.828 1.992-2.161 3.492-4 4.5z" />
    <path style="opacity:1" fill="#8e8275"
        d="M418.5 528.5c4.181 3.699 6.181 8.366 6 14 .913 4.724-.754 8.057-5 10-12.326 3.847-24.826 4.513-37.5 2-9.339 2.666-18.673 2.666-28 0a886.727 886.727 0 0 1-61.5 10.5 52.355 52.355 0 0 0-6.5 9.5 127.67 127.67 0 0 0-4 28c-1.328 1.522-1.162 3.189.5 5 3.147 1.353 3.147 3.353 0 6a89.468 89.468 0 0 1-12 1.5 14.698 14.698 0 0 0-3 3.5c-5.763-6.443-11.597-6.443-17.5 0-1.007 7.343-5.174 11.843-12.5 13.5-8.766-.115-15.766 3.218-21 10a207.847 207.847 0 0 1-18 7.5c-12.308-.322-22.308-5.156-30-14.5a42.479 42.479 0 0 0-13 0 16.58 16.58 0 0 0-4 2.5 346.574 346.574 0 0 1-5.5-14 283.154 283.154 0 0 1-6-36 37.549 37.549 0 0 0-7.5-10.5 12.494 12.494 0 0 0-7 0 125.757 125.757 0 0 1-21 6 562.938 562.938 0 0 1-47 5.5v-31c5.194-.393 10.36-1.06 15.5-2a110.228 110.228 0 0 0 26.5 1.5c4.81-.491 9.144-2.158 13-5a58.754 58.754 0 0 0 18-4c7.864-.264 15.697.236 23.5 1.5a188.028 188.028 0 0 0 18.5-4 88.876 88.876 0 0 1 18 4.5 64.7 64.7 0 0 0 23-2c8.453-5.707 17.786-9.041 28-10a1904.366 1904.366 0 0 1 62-5.5 74.958 74.958 0 0 0 24-3l19 2a419.913 419.913 0 0 1 37-2.5c4.153-.913 8.32-1.747 12.5-2.5a101.106 101.106 0 0 0 22.5 2z" />
    <path style="opacity:1" fill="#b8a190"
        d="M940.5 678.5c4.923 4.845 8.59 10.512 11 17-3.945 1.923-7.778 3.256-11.5 4-3.654 4.339-7.821 7.839-12.5 10.5a70.201 70.201 0 0 1-21-3 6.978 6.978 0 0 1-3.5-2.5 59.043 59.043 0 0 0-5-9c-2.84-2.001-4.673-4.668-5.5-8 1.062-5.99-.438-11.324-4.5-16a21.754 21.754 0 0 1-7.5 6 4.457 4.457 0 0 1-2-1.5 998.761 998.761 0 0 1-40-2c-8.191 5.525-15.025 12.358-20.5 20.5a354.499 354.499 0 0 0-6-17c-2.697-2.708-5.863-4.541-9.5-5.5l6-6a621.567 621.567 0 0 1-4-10 359.182 359.182 0 0 0 1.5-12.5c2.31-1.637 3.81-3.804 4.5-6.5-5.549-3.426-8.549-8.426-9-15 2.154-12.118 6.654-23.285 13.5-33.5 3.65-5.547 7.984-6.547 13-3 3.806-10.364 5.806-21.03 6-32a162.6 162.6 0 0 0-8.5-16 63.707 63.707 0 0 0 7-6.5c2-.667 4-.667 6 0 4.946 2.908 10.279 4.908 16 6 4.032 8.937 10.532 12.103 19.5 9.5a14.506 14.506 0 0 0 4 5 46.837 46.837 0 0 0 4 11c2.403 1.805 4.07 4.138 5 7a121.216 121.216 0 0 1 5 26 75.95 75.95 0 0 1 3.5 7.5c-.149 2.292-.649 4.792-1.5 7.5-3.475 3.619-5.308 7.952-5.5 13 1.001 5.345 2.001 10.678 3 16 1.463.132 2.963.465 4.5 1 4.392-1.721 8.726-2.388 13-2a18.08 18.08 0 0 1 3.5-2 229.57 229.57 0 0 0 11.5 14 28.043 28.043 0 0 0 1.5 5c-1.961 12.064 3.039 19.731 15 23z" />
    <path style="opacity:1" fill="#a39d8b"
        d="M681.5 534.5c3.021 6.862 3.854 14.196 2.5 22-1.539 3.021-4.039 4.354-7.5 4a74.058 74.058 0 0 1-1.5 12l-3.5 3.5c1.074.739 1.741 1.739 2 3-2.934 4.747-3.601 9.747-2 15a15.973 15.973 0 0 0-2 6c3.107 2.781 5.94 5.948 8.5 9.5a133.243 133.243 0 0 1 2 21 39.806 39.806 0 0 0 7 8c3.423 7.47 1.923 13.636-4.5 18.5-3.421 1.699-6.421 3.865-9 6.5a247.102 247.102 0 0 0-21 4c-8.502-.027-17.002-.027-25.5 0a225.329 225.329 0 0 0-12 2 15.973 15.973 0 0 1-6-2c-5.405 3.736-9.739 8.403-13 14-2.754 3.262-5.921 5.929-9.5 8a406.3 406.3 0 0 1-14.5-2c-3.485-.01-6.652-1.344-9.5-4a140.33 140.33 0 0 0-4-16 547.49 547.49 0 0 0 2.5-9c7.951-10.483 8.618-21.483 2-33a67.886 67.886 0 0 1 1.5-22 97.76 97.76 0 0 1-1.5-14 17.842 17.842 0 0 1 4.5-5.5 189.677 189.677 0 0 0 18-7 72.232 72.232 0 0 1 18-14c3.445-3.825 5.445-8.325 6-13.5 2.575-1.068 4.742-2.735 6.5-5a6.293 6.293 0 0 0 3 1 280.046 280.046 0 0 0 29.5-4.5 45.863 45.863 0 0 0 11-8.5c7.115 1.887 14.449 2.554 22 2z" />
    <path style="opacity:1" fill="#726259"
        d="M419.5 552.5a95.356 95.356 0 0 1 8.5 8 100.105 100.105 0 0 1 1 26 78.913 78.913 0 0 0-7.5 15c.65 3.155 2.317 5.655 5 7.5-2.501 4.503-4.001 9.336-4.5 14.5a36.16 36.16 0 0 0-4 7c-.709 6.915-3.209 13.081-7.5 18.5a74.297 74.297 0 0 0 5 16 9475.082 9475.082 0 0 1-9 11c1.528 1.648 2.195 3.648 2 6-1.417 3.905-1.084 7.572 1 11-.962 6.504-.629 13.004 1 19.5a495.007 495.007 0 0 1-19-18.5c-5.893-.042-10.726-2.209-14.5-6.5-.096-2.951-.929-5.618-2.5-8-5.223-1.677-10.056-4.01-14.5-7a660.832 660.832 0 0 1-5 3c-2.805-1.097-5.638-1.097-8.5 0-7.882-2.242-15.882-2.575-24-1a40.121 40.121 0 0 0-7.5-2c-5.456.959-10.79 1.292-16 1-1.711.061-3.044-.606-4-2-7.363 4.344-15.196 5.51-23.5 3.5-.881-.708-1.547-1.542-2-2.5a203.582 203.582 0 0 1-2.5-20 15.645 15.645 0 0 0-2.5-4c2.256-3.631 5.589-5.465 10-5.5.928-.388 1.595-1.055 2-2a49.058 49.058 0 0 0-4-13l1-1c-2.99-2.153-4.99-4.987-6-8.5a14.698 14.698 0 0 1 3-3.5 89.468 89.468 0 0 0 12-1.5c3.147-2.647 3.147-4.647 0-6-1.662-1.811-1.828-3.478-.5-5a127.67 127.67 0 0 1 4-28 52.355 52.355 0 0 1 6.5-9.5 886.727 886.727 0 0 0 61.5-10.5c9.327 2.666 18.661 2.666 28 0 12.674 2.513 25.174 1.847 37.5-2z" />
    <path style="opacity:1" fill="#6a4f47"
        d="M151.5 637.5c-1.151 13.32-7.151 23.654-18 31a76.332 76.332 0 0 0-8-6.5 161.772 161.772 0 0 1-26-2.5c-3.035.864-6.035 1.198-9 1-8.989-3.36-17.156-2.026-24.5 4l-5-5c-1.011.837-2.178 1.17-3.5 1v-72a562.938 562.938 0 0 0 47-5.5 125.757 125.757 0 0 0 21-6 12.494 12.494 0 0 1 7 0 37.549 37.549 0 0 1 7.5 10.5 283.154 283.154 0 0 0 6 36 346.574 346.574 0 0 0 5.5 14z" />
    <path style="opacity:1" fill="#86776f"
        d="M267.5 618.5c1.01 3.513 3.01 6.347 6 8.5l-1 1a49.058 49.058 0 0 1 4 13c-.405.945-1.072 1.612-2 2-4.411.035-7.744 1.869-10 5.5a15.645 15.645 0 0 1 2.5 4 203.582 203.582 0 0 0 2.5 20c-3.211 1.712-5.044 4.379-5.5 8 .004 8.78-.829 17.446-2.5 26 0 2 1 3 3 3a34.119 34.119 0 0 1 10-1c.028 2.082-.639 3.916-2 5.5.556.383.889.883 1 1.5h-158c-3.52-2.589-7.52-4.422-12-5.5-2.281-1.851-2.281-3.518 0-5-2.667-1.667-2.667-3.333 0-5a35.484 35.484 0 0 0-5.5-10.5c-1.04-3.136-.207-5.636 2.5-7.5 11.45-1.525 22.117-5.192 32-11 .752-.671 1.086-1.504 1-2.5 10.849-7.346 16.849-17.68 18-31a16.58 16.58 0 0 1 4-2.5 42.479 42.479 0 0 1 13 0c7.692 9.344 17.692 14.178 30 14.5a207.847 207.847 0 0 0 18-7.5c5.234-6.782 12.234-10.115 21-10 7.326-1.657 11.493-6.157 12.5-13.5 5.903-6.443 11.737-6.443 17.5 0z" />
    <path style="opacity:1" fill="#8b766c"
        d="M133.5 668.5c.086.996-.248 1.829-1 2.5-9.883 5.808-20.55 9.475-32 11-2.707 1.864-3.54 4.364-2.5 7.5a35.484 35.484 0 0 1 5.5 10.5c-2.667 1.667-2.667 3.333 0 5-2.281 1.482-2.281 3.149 0 5 4.48 1.078 8.48 2.911 12 5.5h-58v-55c1.322.17 2.489-.163 3.5-1l5 5c7.344-6.026 15.511-7.36 24.5-4 2.965.198 5.965-.136 9-1a161.772 161.772 0 0 0 26 2.5 76.332 76.332 0 0 1 8 6.5z" />
    <path style="opacity:1" fill="#7f7068"
        d="M558.5 667.5a140.33 140.33 0 0 1 4 16c-.458 5.02-.458 10.187 0 15.5a52.628 52.628 0 0 1-5 16.5h-81c-5.1-5.089-6.1-11.256-3-18.5a25.513 25.513 0 0 1-4-4.5c3.617-4.723 8.284-6.723 14-6a62.952 62.952 0 0 1 12-2c4.04.636 8.04 1.136 12 1.5a12.14 12.14 0 0 1 4.5-3.5c3.001-6.012 7.167-11.178 12.5-15.5 4.631-.528 9.131-.028 13.5 1.5a26.67 26.67 0 0 1 6.5-1.5 17.712 17.712 0 0 1 5.5-4.5 103.962 103.962 0 0 1 8.5 5z" />
    <path style="opacity:1" fill="#aaa594"
        d="M673.5 663.5a54.53 54.53 0 0 0 6 6.5 14.972 14.972 0 0 0-3 3.5 110.424 110.424 0 0 0 3 10c-.128 2.455-1.128 4.455-3 6-6.431 2.27-13.098 3.437-20 3.5a25.099 25.099 0 0 0-8 5c3.371 2.837 6.038 6.171 8 10a256.04 256.04 0 0 1 12 5.5c.798.457 1.131 1.124 1 2h-112a52.628 52.628 0 0 0 5-16.5c-.458-5.313-.458-10.48 0-15.5 2.848 2.656 6.015 3.99 9.5 4a406.3 406.3 0 0 0 14.5 2c3.579-2.071 6.746-4.738 9.5-8 3.261-5.597 7.595-10.264 13-14a15.973 15.973 0 0 0 6 2 225.329 225.329 0 0 1 12-2c8.498-.027 16.998-.027 25.5 0a247.102 247.102 0 0 1 21-4z" />
    <path style="opacity:1" fill="#a89988"
        d="M779.5 715.5h-110c.131-.876-.202-1.543-1-2a256.04 256.04 0 0 0-12-5.5c-1.962-3.829-4.629-7.163-8-10a25.099 25.099 0 0 1 8-5c6.902-.063 13.569-1.23 20-3.5 5 2.424 10.333 4.257 16 5.5 18.195-1.104 32.195-9.437 42-25a16.242 16.242 0 0 1 8 0 219.124 219.124 0 0 1 17 10c2.048 2.662 4.714 2.828 8 .5 3.867.635 7.7 1.301 11.5 2-.6 5.488-1.433 11.321-2.5 17.5.81 5.218 1.81 10.384 3 15.5z" />
    <path style="opacity:1" fill="#80706b"
        d="M410.5 712.5v3h-137c-.111-.617-.444-1.117-1-1.5 1.361-1.584 2.028-3.418 2-5.5a34.119 34.119 0 0 0-10 1c-2 0-3-1-3-3a134.967 134.967 0 0 0 2.5-26c.456-3.621 2.289-6.288 5.5-8 .453.958 1.119 1.792 2 2.5 8.304 2.01 16.137.844 23.5-3.5.956 1.394 2.289 2.061 4 2 5.21.292 10.544-.041 16-1a40.121 40.121 0 0 1 7.5 2c8.118-1.575 16.118-1.242 24 1 2.862-1.097 5.695-1.097 8.5 0a660.832 660.832 0 0 0 5-3c4.444 2.99 9.277 5.323 14.5 7 1.571 2.382 2.404 5.049 2.5 8 3.774 4.291 8.607 6.458 14.5 6.5a495.007 495.007 0 0 0 19 18.5z" />
    <path style="opacity:1" fill="#af978b"
        d="M965.5 672.5v43h-8c1.382-2.894 3.382-5.394 6-7.5a210.447 210.447 0 0 1-12-12.5c-2.41-6.488-6.077-12.155-11-17 7.844-3.507 16.178-5.507 25-6z" />
    <path style="opacity:1" fill="#818181"
        d="M618.5 750.5c22.932-1.418 36.598 9.248 41 32-6.377 2.594-13.043 4.261-20 5-1.935-14.471-9.935-19.638-24-15.5-7.135 4.763-11.969 11.263-14.5 19.5-8.062 26.764-11.728 54.097-11 82 2.014 17.376 11.181 23.209 27.5 17.5 13.419-12.061 19.752-27.228 19-45.5h-21c.292-6.377.959-12.71 2-19a840.27 840.27 0 0 1 41 .5 3598.401 3598.401 0 0 0-12 83.5h-15a322.31 322.31 0 0 1 1.5-19c-10.254 17.382-25.088 23.549-44.5 18.5-6.599-4.275-11.432-10.108-14.5-17.5-4.182-15.739-5.516-31.739-4-48a298.485 298.485 0 0 1 10-52c4.465-15.135 12.965-27.302 25.5-36.5a377.701 377.701 0 0 1 13-5.5zM382.5 752.5c12.338-.167 24.671 0 37 .5 27.799 3.14 39.966 18.64 36.5 46.5-3.762 21.094-15.929 34.594-36.5 40.5a232.053 232.053 0 0 1-30.5 3.5 1465.304 1465.304 0 0 0-8.5 67h-20a8999.973 8999.973 0 0 0 22-158zM477.5 753.5h24a3994.53 3994.53 0 0 0 28.5 129 6933.439 6933.439 0 0 1 14.5-129 91.123 91.123 0 0 1 19 1 14644.516 14644.516 0 0 0-22 156h-23a9172.893 9172.893 0 0 0-28.5-131 11671.78 11671.78 0 0 0-15.5 131h-19l22-157z" />
    <path style="opacity:1" fill="#fdfdfd"
        d="M398.5 770.5c33.558-3.635 44.058 10.032 31.5 41-5.148 6.81-11.981 10.643-20.5 11.5-5.657.499-11.324.666-17 .5a2519.13 2519.13 0 0 1 6-53z" />
</svg>