<svg xmlns="http://www.w3.org/2000/svg" width="512" height="512" viewBox="0 0 1188 1188">
    <path fill="#fff" stroke="#000" stroke-width="15" d="M199 29v1127h797V29H199z" />
    <path fill="gray" stroke="#000"
        d="M299 180.53c-9.49 3.04-11.36 11.94-5.72 16.82 3.1 2.69 8.84 3.16 12.72 2.26 7.53-1.75 9.79-10.28 5.49-15.39-3.19-3.79-7.92-4.34-12.49-3.69zm41 .01c-2.33.69-4.76 1.37-6.57 3.11-3.24 3.11-3.28 10.6 0 13.7 2.93 2.77 8.8 3.08 12.57 2.31 8.6-1.77 9.72-10.7 5.57-15.44-3.09-3.52-7.19-4.2-11.57-3.68zm40-.01c-14.14 4.53-10.8 20.48 4 19.37 7.74-.57 13.58-8.63 8.26-15.56-2.97-3.88-7.8-4.44-12.26-3.81zm47 0c-9.49 3.04-11.36 11.94-5.72 16.82 3.1 2.69 8.84 3.16 12.72 2.26 7.53-1.75 9.79-10.28 5.49-15.39-3.19-3.79-7.92-4.34-12.49-3.69zm41 .01c-2.33.69-4.76 1.37-6.57 3.11-3.24 3.11-3.28 10.6 0 13.7 2.93 2.77 8.8 3.08 12.57 2.31 8.6-1.77 9.72-10.7 5.57-15.44-3.09-3.52-7.19-4.2-11.57-3.68zm40-.01c-14.14 4.53-10.8 20.48 4 19.37 7.74-.57 13.58-8.63 8.26-15.56-2.92-3.81-7.87-4.43-12.26-3.81zm47 0c-9.49 3.04-11.36 11.94-5.72 16.82 3.1 2.69 8.84 3.16 12.72 2.26 7.53-1.75 9.79-10.28 5.49-15.39-3.19-3.79-7.92-4.34-12.49-3.69zm41 .01c-2.33.69-4.76 1.37-6.57 3.11-3.24 3.11-3.28 10.6 0 13.7 2.93 2.77 8.8 3.08 12.57 2.31 8.6-1.77 9.72-10.7 5.57-15.44-3.09-3.52-7.19-4.2-11.57-3.68zm40-.01c-14.14 4.53-10.8 20.48 4 19.37 7.74-.57 13.58-8.63 8.26-15.56-2.92-3.81-7.87-4.43-12.26-3.81zm47 0c-9.49 3.04-11.36 11.94-5.72 16.82 3.1 2.69 8.84 3.16 12.72 2.26 7.53-1.75 9.79-10.28 5.49-15.39-3.19-3.79-7.92-4.34-12.49-3.69zm41 .01c-2.33.69-4.76 1.37-6.57 3.11-3.24 3.11-3.28 10.6 0 13.7 2.93 2.77 8.8 3.08 12.57 2.31 8.6-1.77 9.72-10.7 5.57-15.44-3.09-3.52-7.19-4.2-11.57-3.68zm40-.01c-14.14 4.53-10.8 20.48 4 19.37 7.74-.57 13.58-8.63 8.26-15.56-2.97-3.88-7.8-4.44-12.26-3.81zm47 0c-9.49 3.04-11.36 11.94-5.72 16.82 3.1 2.69 8.84 3.16 12.72 2.26 7.53-1.75 9.79-10.28 5.49-15.39-3.19-3.79-7.92-4.34-12.49-3.69zm41 .01c-2.33.69-4.76 1.37-6.57 3.11-3.24 3.11-3.28 10.6 0 13.7 2.93 2.77 8.8 3.08 12.57 2.31 8.6-1.77 9.72-10.7 5.57-15.44-3.09-3.52-7.19-4.2-11.57-3.68zm40-.01c-14.14 4.53-10.8 20.48 4 19.37 7.74-.57 13.58-8.63 8.26-15.56-2.97-3.88-7.8-4.44-12.26-3.81zm-593 146c-9.49 3.04-11.36 11.94-5.72 16.82 3.1 2.69 8.84 3.16 12.72 2.26 7.53-1.75 9.79-10.28 5.49-15.39-3.19-3.79-7.92-4.34-12.49-3.69zm41 .01c-2.33.69-4.76 1.37-6.57 3.11-3.24 3.11-3.28 10.6 0 13.7 2.93 2.77 8.8 3.08 12.57 2.31 8.6-1.77 9.72-10.7 5.57-15.44-3.09-3.52-7.19-4.2-11.57-3.68zm40-.01c-14.14 4.53-10.8 20.48 4 19.37 7.74-.57 13.58-8.63 8.26-15.56-2.92-3.81-7.87-4.43-12.26-3.81zm47 0c-9.49 3.04-11.36 11.94-5.72 16.82 3.1 2.69 8.84 3.16 12.72 2.26 7.53-1.75 9.79-10.28 5.49-15.39-3.19-3.79-7.92-4.34-12.49-3.69zm41 .01c-2.33.69-4.76 1.37-6.57 3.11-3.24 3.11-3.28 10.6 0 13.7 2.93 2.77 8.8 3.08 12.57 2.31 8.6-1.77 9.72-10.7 5.57-15.44-3.09-3.52-7.19-4.2-11.57-3.68zm40-.01c-14.14 4.53-10.8 20.48 4 19.37 7.74-.57 13.58-8.63 8.26-15.56-2.97-3.88-7.8-4.44-12.26-3.81zm47 0c-9.49 3.04-11.36 11.94-5.72 16.82 3.1 2.69 8.84 3.16 12.72 2.26 7.53-1.75 9.79-10.28 5.49-15.39-3.19-3.79-7.92-4.34-12.49-3.69zm41 .01c-2.33.69-4.76 1.37-6.57 3.11-3.24 3.11-3.28 10.6 0 13.7 2.93 2.77 8.8 3.08 12.57 2.31 8.6-1.77 9.72-10.7 5.57-15.44-3.09-3.52-7.19-4.2-11.57-3.68zm40-.01c-14.14 4.53-10.8 20.48 4 19.37 7.74-.57 13.58-8.63 8.26-15.56-2.97-3.88-7.8-4.44-12.26-3.81zm47 0c-9.49 3.04-11.36 11.94-5.72 16.82 3.1 2.69 8.84 3.16 12.72 2.26 7.53-1.75 9.79-10.28 5.49-15.39-3.19-3.79-7.92-4.34-12.49-3.69zm41 .01c-2.33.69-4.76 1.37-6.57 3.11-3.24 3.11-3.28 10.6 0 13.7 2.93 2.77 8.8 3.08 12.57 2.31 8.6-1.77 9.72-10.7 5.57-15.44-3.09-3.52-7.19-4.2-11.57-3.68zm40-.01c-14.14 4.53-10.8 20.48 4 19.37 7.74-.57 13.58-8.63 8.26-15.56-2.97-3.88-7.8-4.44-12.26-3.81zm47 0c-9.49 3.04-11.36 11.94-5.72 16.82 3.1 2.69 8.84 3.16 12.72 2.26 7.53-1.75 9.79-10.28 5.49-15.39-3.19-3.79-7.92-4.34-12.49-3.69zm41 .01c-2.33.69-4.76 1.37-6.57 3.11-3.24 3.11-3.28 10.6 0 13.7 2.93 2.77 8.8 3.08 12.57 2.31 8.6-1.77 9.72-10.7 5.57-15.44-3.09-3.52-7.19-4.2-11.57-3.68zm40-.01c-14.14 4.53-10.8 20.48 4 19.37 7.74-.57 13.58-8.63 8.26-15.56-2.97-3.88-7.8-4.44-12.26-3.81zm-593 146c-9.49 3.04-11.36 11.94-5.72 16.82 3.1 2.69 8.84 3.16 12.72 2.26 7.53-1.75 9.79-10.28 5.49-15.39-3.19-3.79-7.92-4.34-12.49-3.69zm41 .01c-2.33.69-4.76 1.37-6.57 3.11-3.24 3.11-3.28 10.6 0 13.7 2.93 2.77 8.8 3.08 12.57 2.31 8.6-1.77 9.72-10.7 5.57-15.44-3.09-3.52-7.19-4.2-11.57-3.68zm40-.01c-14.14 4.53-10.8 20.48 4 19.37 7.74-.57 13.58-8.63 8.26-15.56-2.97-3.88-7.8-4.44-12.26-3.81zm47 0c-9.49 3.04-11.36 11.94-5.72 16.82 3.1 2.69 8.84 3.16 12.72 2.26 7.53-1.75 9.79-10.28 5.49-15.39-3.19-3.79-7.92-4.34-12.49-3.69zm41 .01c-2.33.69-4.76 1.37-6.57 3.11-3.24 3.11-3.28 10.6 0 13.7 2.93 2.77 8.8 3.08 12.57 2.31 8.6-1.77 9.72-10.7 5.57-15.44-3.09-3.52-7.19-4.2-11.57-3.68zm40-.01c-14.14 4.53-10.8 20.48 4 19.37 7.74-.57 13.58-8.63 8.26-15.56-2.92-3.81-7.87-4.43-12.26-3.81zm47 0c-9.49 3.04-11.36 11.94-5.72 16.82 3.1 2.69 8.84 3.16 12.72 2.26 7.53-1.75 9.79-10.28 5.49-15.39-3.19-3.79-7.92-4.34-12.49-3.69zm41 .01c-2.33.69-4.76 1.37-6.57 3.11-3.24 3.11-3.28 10.6 0 13.7 2.93 2.77 8.8 3.08 12.57 2.31 8.6-1.77 9.72-10.7 5.57-15.44-3.09-3.52-7.19-4.2-11.57-3.68zm40-.01c-14.14 4.53-10.8 20.48 4 19.37 7.74-.57 13.58-8.63 8.26-15.56-2.97-3.88-7.8-4.44-12.26-3.81zm47 0c-9.49 3.04-11.36 11.94-5.72 16.82 3.1 2.69 8.84 3.16 12.72 2.26 7.53-1.75 9.79-10.28 5.49-15.39-3.19-3.79-7.92-4.34-12.49-3.69zm41 .01c-2.33.69-4.76 1.37-6.57 3.11-3.24 3.11-3.28 10.6 0 13.7 2.93 2.77 8.8 3.08 12.57 2.31 8.6-1.77 9.72-10.7 5.57-15.44-3.09-3.52-7.19-4.2-11.57-3.68zm40-.01c-14.14 4.53-10.8 20.48 4 19.37 7.74-.57 13.58-8.63 8.26-15.56-2.92-3.81-7.87-4.43-12.26-3.81zm47 0c-9.49 3.04-11.36 11.94-5.72 16.82 3.1 2.69 8.84 3.16 12.72 2.26 7.53-1.75 9.79-10.28 5.49-15.39-3.19-3.79-7.92-4.34-12.49-3.69zm41 .01c-2.33.69-4.76 1.37-6.57 3.11-3.24 3.11-3.28 10.6 0 13.7 2.93 2.77 8.8 3.08 12.57 2.31 8.6-1.77 9.72-10.7 5.57-15.44-3.09-3.52-7.19-4.2-11.57-3.68zm40-.01c-14.14 4.53-10.8 20.48 4 19.37 7.74-.57 13.58-8.63 8.26-15.56-2.97-3.88-7.8-4.44-12.26-3.81zm-593 146c-9.49 3.04-11.36 11.94-5.72 16.82 3.1 2.69 8.84 3.16 12.72 2.26 7.53-1.75 9.79-10.28 5.49-15.39-3.19-3.79-7.92-4.34-12.49-3.69zm41 .01c-2.33.69-4.76 1.37-6.57 3.11-3.24 3.11-3.28 10.6 0 13.7 2.93 2.77 8.8 3.08 12.57 2.31 8.6-1.77 9.72-10.7 5.57-15.44-3.09-3.52-7.19-4.2-11.57-3.68zm40-.01c-14.14 4.53-10.8 20.48 4 19.37 7.74-.57 13.58-8.63 8.26-15.56-2.97-3.88-7.8-4.44-12.26-3.81zm47 0c-9.49 3.04-11.36 11.94-5.72 16.82 3.1 2.69 8.84 3.16 12.72 2.26 7.53-1.75 9.79-10.28 5.49-15.39-3.19-3.79-7.92-4.34-12.49-3.69zm41 .01c-2.33.69-4.76 1.37-6.57 3.11-3.24 3.11-3.28 10.6 0 13.7 2.93 2.77 8.8 3.08 12.57 2.31 8.6-1.77 9.72-10.7 5.57-15.44-3.09-3.52-7.19-4.2-11.57-3.68zm40-.01c-14.14 4.53-10.8 20.48 4 19.37 7.74-.57 13.58-8.63 8.26-15.56-2.97-3.88-7.8-4.44-12.26-3.81zm47 0c-9.49 3.04-11.36 11.94-5.72 16.82 3.1 2.69 8.84 3.16 12.72 2.26 7.53-1.75 9.79-10.28 5.49-15.39-3.19-3.79-7.92-4.34-12.49-3.69zm41 .01c-2.33.69-4.76 1.37-6.57 3.11-3.24 3.11-3.28 10.6 0 13.7 2.93 2.77 8.8 3.08 12.57 2.31 8.6-1.77 9.72-10.7 5.57-15.44-3.09-3.52-7.19-4.2-11.57-3.68zm40-.01c-14.14 4.53-10.8 20.48 4 19.37 7.74-.57 13.58-8.63 8.26-15.56-2.97-3.88-7.8-4.44-12.26-3.81zM391 759l-5.25 35c-.5 3.07-1.49 12.59-2.92 14.69-1.78 2.61-5.03 2.29-7.83 2.31h-12l-4 27h20l-12.27 78-5.73 40c-.12 10.29-.43 19.47 4.38 29 11.99 23.77 44.25 18.04 63.62 8l-9-25c-6.98 1.66-14.71 8.1-21.95 3.26-5.62-3.75-6.17-12.12-6.04-18.26l3.72-28 8.14-54 3.26-22c.34-2.45.75-7.7 2.47-9.4 1.94-1.93 5.85-1.59 8.4-1.6h26l4-27h-35l7-52h-29zm213 0-5.25 35c-.5 3.07-1.49 12.59-2.92 14.69-1.78 2.61-5.03 2.29-7.83 2.31h-12l-4 27h20l-12.27 78-5.73 40c-.12 10.29-.43 19.47 4.38 29 11.99 23.77 44.25 18.04 63.62 8l-9-25c-6.98 1.66-14.71 8.1-21.95 3.26-5.62-3.75-6.17-12.12-6.04-18.26l3.72-28 8.14-54 3.26-22c.34-2.45.75-7.7 2.47-9.4 1.94-1.93 5.85-1.59 8.4-1.6h26l4-27h-35l7-52h-29zm-148 52 6.98 23 14.04 44 5.65 17 2.17 8.58-4.14 8.42-10.7 19-22.42 40L433 998h23c10.71-.02 8.74-1.11 16.58-15L497 937l13.72 45 5.79 14.98L524 998h23l-20.33-64-8.44-26.83c-.56-3.52 1.67-6.25 3.35-9.17l9.7-17L571 811h-24c-10.02.02-8.95 1.71-16.69 16L505 873l-18-62h-31zM301 955.53c-12.04 3.6-17.86 13.32-18 25.47-.12 10.98 3.46 19.62 16 19.8 2.19.25 5.93.26 8 0 15.79-3.62 24.71-31.36 11.82-42.24-4.93-4.16-11.81-4.01-17.82-3.03z" />
</svg>