<svg xmlns="http://www.w3.org/2000/svg" width="3.96in" height="3.96in" viewBox="0 0 1188 1188">
    <path fill="#fff" stroke="#000" stroke-width="15" d="M199 29v1127h797V29H199z" />
    <path fill="gray" stroke="#000"
        d="M297 177.53c-9.49 3.04-11.36 11.94-5.72 16.82 3.1 2.69 8.84 3.16 12.72 2.26 7.53-1.75 9.79-10.28 5.49-15.39-3.19-3.79-7.92-4.34-12.49-3.69zm41 .01c-2.33.69-4.76 1.37-6.57 3.11-3.24 3.11-3.28 10.6 0 13.7 2.93 2.77 8.8 3.08 12.57 2.31 8.6-1.77 9.72-10.7 5.57-15.44-3.09-3.52-7.19-4.2-11.57-3.68zm40-.01c-14.14 4.53-10.8 20.48 4 19.37 7.74-.57 13.58-8.63 8.26-15.56-2.97-3.88-7.8-4.44-12.26-3.81zm47 0c-9.49 3.04-11.36 11.94-5.72 16.82 3.1 2.69 8.84 3.16 12.72 2.26 7.53-1.75 9.79-10.28 5.49-15.39-3.19-3.79-7.92-4.34-12.49-3.69zm41 .01c-2.33.69-4.76 1.37-6.57 3.11-3.24 3.11-3.28 10.6 0 13.7 2.93 2.77 8.8 3.08 12.57 2.31 8.6-1.77 9.72-10.7 5.57-15.44-3.09-3.52-7.19-4.2-11.57-3.68zm40-.01c-14.14 4.53-10.8 20.48 4 19.37 7.74-.57 13.58-8.63 8.26-15.56-2.92-3.81-7.87-4.43-12.26-3.81zm47 0c-9.49 3.04-11.36 11.94-5.72 16.82 3.1 2.69 8.84 3.16 12.72 2.26 7.53-1.75 9.79-10.28 5.49-15.39-3.19-3.79-7.92-4.34-12.49-3.69zm41 .01c-2.33.69-4.76 1.37-6.57 3.11-3.24 3.11-3.28 10.6 0 13.7 2.93 2.77 8.8 3.08 12.57 2.31 8.6-1.77 9.72-10.7 5.57-15.44-3.09-3.52-7.19-4.2-11.57-3.68zm40-.01c-14.14 4.53-10.8 20.48 4 19.37 7.74-.57 13.58-8.63 8.26-15.56-2.92-3.81-7.87-4.43-12.26-3.81zm47 0c-9.49 3.04-11.36 11.94-5.72 16.82 3.1 2.69 8.84 3.16 12.72 2.26 7.53-1.75 9.79-10.28 5.49-15.39-3.19-3.79-7.92-4.34-12.49-3.69zm41 .01c-2.33.69-4.76 1.37-6.57 3.11-3.24 3.11-3.28 10.6 0 13.7 2.93 2.77 8.8 3.08 12.57 2.31 8.6-1.77 9.72-10.7 5.57-15.44-3.09-3.52-7.19-4.2-11.57-3.68zm40-.01c-14.14 4.53-10.8 20.48 4 19.37 7.74-.57 13.58-8.63 8.26-15.56-2.92-3.81-7.87-4.43-12.26-3.81zm47 0c-9.49 3.04-11.36 11.94-5.72 16.82 3.1 2.69 8.84 3.16 12.72 2.26 7.53-1.75 9.79-10.28 5.49-15.39-3.19-3.79-7.92-4.34-12.49-3.69zm41 .01c-2.33.69-4.76 1.37-6.57 3.11-3.24 3.11-3.28 10.6 0 13.7 2.93 2.77 8.8 3.08 12.57 2.31 8.6-1.77 9.72-10.7 5.57-15.44-3.09-3.52-7.19-4.2-11.57-3.68zm40-.01c-14.14 4.53-10.8 20.48 4 19.37 7.74-.57 13.58-8.63 8.26-15.56-2.97-3.88-7.8-4.44-12.26-3.81zm-593 146c-9.49 3.04-11.36 11.94-5.72 16.82 3.1 2.69 8.84 3.16 12.72 2.26 7.53-1.75 9.79-10.28 5.49-15.39-3.19-3.79-7.92-4.34-12.49-3.69zm41 .01c-2.33.69-4.76 1.37-6.57 3.11-3.24 3.11-3.28 10.6 0 13.7 2.93 2.77 8.8 3.08 12.57 2.31 8.6-1.77 9.72-10.7 5.57-15.44-3.09-3.52-7.19-4.2-11.57-3.68zm40-.01c-14.14 4.53-10.8 20.48 4 19.37 7.74-.57 13.58-8.63 8.26-15.56-2.97-3.88-7.8-4.44-12.26-3.81zm47 0c-9.49 3.04-11.36 11.94-5.72 16.82 3.1 2.69 8.84 3.16 12.72 2.26 7.53-1.75 9.79-10.28 5.49-15.39-3.19-3.79-7.92-4.34-12.49-3.69zm41 .01c-2.33.69-4.76 1.37-6.57 3.11-3.24 3.11-3.28 10.6 0 13.7 2.93 2.77 8.8 3.08 12.57 2.31 8.6-1.77 9.72-10.7 5.57-15.44-3.09-3.52-7.19-4.2-11.57-3.68zm40-.01c-14.14 4.53-10.8 20.48 4 19.37 7.74-.57 13.58-8.63 8.26-15.56-2.92-3.81-7.87-4.43-12.26-3.81zm47 0c-9.49 3.04-11.36 11.94-5.72 16.82 3.1 2.69 8.84 3.16 12.72 2.26 7.53-1.75 9.79-10.28 5.49-15.39-3.19-3.79-7.92-4.34-12.49-3.69zm41 .01c-2.33.69-4.76 1.37-6.57 3.11-3.24 3.11-3.28 10.6 0 13.7 2.93 2.77 8.8 3.08 12.57 2.31 8.6-1.77 9.72-10.7 5.57-15.44-3.09-3.52-7.19-4.2-11.57-3.68zm40-.01c-14.14 4.53-10.8 20.48 4 19.37 7.74-.57 13.58-8.63 8.26-15.56-2.92-3.81-7.87-4.43-12.26-3.81zm47 0c-9.49 3.04-11.36 11.94-5.72 16.82 3.1 2.69 8.84 3.16 12.72 2.26 7.53-1.75 9.79-10.28 5.49-15.39-3.19-3.79-7.92-4.34-12.49-3.69zm41 .01c-2.33.69-4.76 1.37-6.57 3.11-3.24 3.11-3.28 10.6 0 13.7 2.93 2.77 8.8 3.08 12.57 2.31 8.6-1.77 9.72-10.7 5.57-15.44-3.09-3.52-7.19-4.2-11.57-3.68zm40-.01c-14.14 4.53-10.8 20.48 4 19.37 7.74-.57 13.58-8.63 8.26-15.56-2.92-3.81-7.87-4.43-12.26-3.81zm47 0c-9.49 3.04-11.36 11.94-5.72 16.82 3.1 2.69 8.84 3.16 12.72 2.26 7.53-1.75 9.79-10.28 5.49-15.39-3.19-3.79-7.92-4.34-12.49-3.69zm41 .01c-2.33.69-4.76 1.37-6.57 3.11-3.24 3.11-3.28 10.6 0 13.7 2.93 2.77 8.8 3.08 12.57 2.31 8.6-1.77 9.72-10.7 5.57-15.44-3.09-3.52-7.19-4.2-11.57-3.68zm40-.01c-14.14 4.53-10.8 20.48 4 19.37 7.74-.57 13.58-8.63 8.26-15.56-2.97-3.88-7.8-4.44-12.26-3.81zm-593 146c-9.49 3.04-11.36 11.94-5.72 16.82 3.1 2.69 8.84 3.16 12.72 2.26 7.53-1.75 9.79-10.28 5.49-15.39-3.19-3.79-7.92-4.34-12.49-3.69zm41 .01c-2.33.69-4.76 1.37-6.57 3.11-3.24 3.11-3.28 10.6 0 13.7 2.93 2.77 8.8 3.08 12.57 2.31 8.6-1.77 9.72-10.7 5.57-15.44-3.09-3.52-7.19-4.2-11.57-3.68zm40-.01c-14.14 4.53-10.8 20.48 4 19.37 7.74-.57 13.58-8.63 8.26-15.56-2.97-3.88-7.8-4.44-12.26-3.81zm47 0c-9.49 3.04-11.36 11.94-5.72 16.82 3.1 2.69 8.84 3.16 12.72 2.26 7.53-1.75 9.79-10.28 5.49-15.39-3.19-3.79-7.92-4.34-12.49-3.69zm41 .01c-2.33.69-4.76 1.37-6.57 3.11-3.24 3.11-3.28 10.6 0 13.7 2.93 2.77 8.8 3.08 12.57 2.31 8.6-1.77 9.72-10.7 5.57-15.44-3.09-3.52-7.19-4.2-11.57-3.68zm40-.01c-14.14 4.53-10.8 20.48 4 19.37 7.74-.57 13.58-8.63 8.26-15.56-2.92-3.81-7.87-4.43-12.26-3.81zm47 0c-9.49 3.04-11.36 11.94-5.72 16.82 3.1 2.69 8.84 3.16 12.72 2.26 7.53-1.75 9.79-10.28 5.49-15.39-3.19-3.79-7.92-4.34-12.49-3.69zm41 .01c-2.33.69-4.76 1.37-6.57 3.11-3.24 3.11-3.28 10.6 0 13.7 2.93 2.77 8.8 3.08 12.57 2.31 8.6-1.77 9.72-10.7 5.57-15.44-3.09-3.52-7.19-4.2-11.57-3.68zm40-.01c-14.14 4.53-10.8 20.48 4 19.37 7.74-.57 13.58-8.63 8.26-15.56-2.92-3.81-7.87-4.43-12.26-3.81zm47 0c-9.49 3.04-11.36 11.94-5.72 16.82 3.1 2.69 8.84 3.16 12.72 2.26 7.53-1.75 9.79-10.28 5.49-15.39-3.19-3.79-7.92-4.34-12.49-3.69zm41 .01c-2.33.69-4.76 1.37-6.57 3.11-3.24 3.11-3.28 10.6 0 13.7 2.93 2.77 8.8 3.08 12.57 2.31 8.6-1.77 9.72-10.7 5.57-15.44-3.09-3.52-7.19-4.2-11.57-3.68zm40-.01c-14.14 4.53-10.8 20.48 4 19.37 7.74-.57 13.58-8.63 8.26-15.56-2.92-3.81-7.87-4.43-12.26-3.81zm47 0c-9.49 3.04-11.36 11.94-5.72 16.82 3.1 2.69 8.84 3.16 12.72 2.26 7.53-1.75 9.79-10.28 5.49-15.39-3.19-3.79-7.92-4.34-12.49-3.69zm41 .01c-2.33.69-4.76 1.37-6.57 3.11-3.24 3.11-3.28 10.6 0 13.7 2.93 2.77 8.8 3.08 12.57 2.31 8.6-1.77 9.72-10.7 5.57-15.44-3.09-3.52-7.19-4.2-11.57-3.68zm40-.01c-14.14 4.53-10.8 20.48 4 19.37 7.74-.57 13.58-8.63 8.26-15.56-2.97-3.88-7.8-4.44-12.26-3.81zm-593 146c-9.49 3.04-11.36 11.94-5.72 16.82 3.1 2.69 8.84 3.16 12.72 2.26 7.53-1.75 9.79-10.28 5.49-15.39-3.19-3.79-7.92-4.34-12.49-3.69zm41 .01c-2.33.69-4.76 1.37-6.57 3.11-3.24 3.11-3.28 10.6 0 13.7 2.93 2.77 8.8 3.08 12.57 2.31 8.6-1.77 9.72-10.7 5.57-15.44-3.09-3.52-7.19-4.2-11.57-3.68zm40-.01c-14.14 4.53-10.8 20.48 4 19.37 7.74-.57 13.58-8.63 8.26-15.56-2.97-3.88-7.8-4.44-12.26-3.81zm47 0c-9.49 3.04-11.36 11.94-5.72 16.82 3.1 2.69 8.84 3.16 12.72 2.26 7.53-1.75 9.79-10.28 5.49-15.39-3.19-3.79-7.92-4.34-12.49-3.69zm41 .01c-2.33.69-4.76 1.37-6.57 3.11-3.24 3.11-3.28 10.6 0 13.7 2.93 2.77 8.8 3.08 12.57 2.31 8.6-1.77 9.72-10.7 5.57-15.44-3.09-3.52-7.19-4.2-11.57-3.68zm40-.01c-14.14 4.53-10.8 20.48 4 19.37 7.74-.57 13.58-8.63 8.26-15.56-2.97-3.88-7.8-4.44-12.26-3.81zm47 0c-9.49 3.04-11.36 11.94-5.72 16.82 3.1 2.69 8.84 3.16 12.72 2.26 7.53-1.75 9.79-10.28 5.49-15.39-3.19-3.79-7.92-4.34-12.49-3.69zm41 .01c-2.33.69-4.76 1.37-6.57 3.11-3.24 3.11-3.28 10.6 0 13.7 2.93 2.77 8.8 3.08 12.57 2.31 8.6-1.77 9.72-10.7 5.57-15.44-3.09-3.52-7.19-4.2-11.57-3.68zm40-.01c-14.14 4.53-10.8 20.48 4 19.37 7.74-.57 13.58-8.63 8.26-15.56-2.97-3.88-7.8-4.44-12.26-3.81zM661 822c-2.98-4.41-5.57-8.19-10-11.36-5.46-3.91-12.38-5.57-19-5.64-19.57-.2-33.7 11.08-43.91 27-19.07 29.73-23.49 76.37-23.09 111 .28 24 10.48 54.66 39 55 6.58.07 10.79.29 17-2.52 7.26-3.28 12.48-8.96 18-14.48l-1 14h29l7.27-50 15-106 9.88-70 3.85-32h-22c-1.95 0-5.71-.26-7.26.99-2.27 1.84-3.39 15.53-3.87 19.01L661 822zm-254 1c-1.74-6.13-.8-8.94 0-15h-21l-7.98 1.6-2.29 11.4-4.31 30-12.69 89-5 35-2.73 20h31l9.72-68 8.2-58c2.19-12.98 10.85-34.61 26.08-35.89 12.66-1.07 16.87 9.3 17.68 19.89l-6.41 49L424 995h23c2.31 0 6.4.38 7.98-1.6 1.08-1.35 1.74-8.33 2.02-10.4l3.73-26 9.14-65c1.97-14.16 2.9-29.07 9.5-42 4.43-8.67 12.11-17.31 22.63-16.94 4.21.14 7.69 1.83 10.36 5.12 1.33 1.64 2.39 3.84 3.09 5.82 1.12 3.12 1.46 5.71 1.54 9l-4.57 37-6 42-9.42 63h32l5.73-42 9.54-68 4.73-37c.15-12.89-1.61-26.67-12.04-35.67-18.93-16.34-54.51-4.69-61.96 18.67-3.63-7.08-4.37-13.07-11.04-18.47-16.22-13.14-47.82-8.87-56.96 10.47zm-1 0v1l-1-1h1zm225 10.33c17.56-1.79 23.03 14.1 23.79 28.67l-4.52 33c-2.32 16.09-4.02 38.67-10.58 53-3.86 8.43-10.64 20.21-20.69 21.79-26.53 4.16-22.19-30.4-22-46.79.21-17.72 6.31-53.11 13.78-69 4.52-9.61 9.24-17.97 20.22-20.67zm-332 119.2c-12.04 3.6-17.86 13.32-18 25.47-.12 10.98 3.46 19.62 16 19.8 2.19.25 5.93.26 8 0 15.79-3.62 24.71-31.36 11.82-42.24-4.93-4.16-11.81-4.01-17.82-3.03z" />
</svg>