<svg xmlns="http://www.w3.org/2000/svg" width="512" height="512" viewBox="0 0 1188 1188">
    <path fill="#fff" stroke="#000" stroke-width="15" d="M199 29v1127h797V29H199z" />
    <path fill="gray" stroke="#000"
        d="m393 140-5.27 36-10 71-9.73 73h13c1.95 0 5.71.26 7.26-.99 1.7-1.37 1.85-4.96 2.16-7.01l2.31-16 7-49c1.16-8.05 2.19-19.85 5.6-27 4.52-9.48 18.87-18.51 24.67-4.98 3.11 7.25-.22 23.89-1.42 31.98l-4 28-5.58 45h22l10.13-75c1.54-11.09 4.49-23.94 2.87-35-3.69-25.05-30.92-26.58-47-12l3.73-29 4.27-28-22-1zm298 0-5.27 36-10 71-9.73 73h13l7.83-1.57 2.3-11.43 4.14-29 12.6-89 7.13-48-22-1zm-223 49-3 19h14c-2.24 27.62-12.13 60.7-12 88 .09 18.5 11.62 28.64 30 25.39 3.64-.65 15.1-2.74 16.19-6.66.7-2.49-4.12-13.64-5.19-16.73-6.72 2.42-15.57 7.91-18.78-3-.2-1.49-.2-3.45 0-5l8.2-63 2.58-19h25l2-19h-24l5-36h-14c-7.24.13-6.38 1.61-7.75 10-.62 3.78-2.89 21.67-4.27 23.69-2.23 3.27-10.32 2.31-13.98 2.31zm92 10v-10h-20l-12.27 86-5.73 45h13c1.95 0 5.71.26 7.26-.99 1.7-1.37 1.85-4.96 2.16-7.01l2.31-16 6.85-48c1.32-9.4 1.75-19.29 5.91-28 4.51-9.43 18.34-20.29 24.86-6 .74 1.63 1.31 4.21 1.46 6l-3.23 27-4.31 29-6.27 43 22 1 12.43-87c1.51-8.91 7.36-24.22 17.57-25.76 9.14-1.38 13.25 8.11 12.68 15.76l-5.41 39-8.27 57 22 1 8.27-58 5.73-43c.11-9.38.31-18.63-7.18-25.67-13.27-12.46-38.1-5.25-43.82 11.67-2.17-4.17-3.58-8.49-7.1-11.79-8.27-7.74-22.55-7.67-31.9-2-3.42 2.08-6.18 5-9 7.79zm-153-1v1l-1-1h1zm-63 107 3-20-43-27 36-21.58c3.04-1.74 12.36-6.5 14.02-8.95 1.92-2.82 2.95-15.67 2.98-19.47-5.8 1.38-10.86 4.92-16 7.85l-26 14.85-25.57 14.93c-2.68 2.67-4.24 15.75-2.83 19.28 1.53 3.85 11.67 9.94 15.4 12.42L344 305zm385-97-3 19 43 27v2c-6.99 2.21-28.21 15.4-36 19.85-3.42 1.95-12.13 6.31-13.99 9.36-1.9 3.09-2.97 15.8-3.01 19.79l49-27.3c4.28-2.35 17.74-9.24 19.83-12.88 1.58-2.77 2.79-15.75 1.15-18.64-1.69-2.97-11.65-8.96-14.98-11.18l-27-18.34c-5.12-3.49-8.87-7.16-15-8.66zM311 483.53c-3.87 1.15-6.9 2.35-9.58 5.57-2.14 2.57-3.09 5.61-3.32 8.9-.84 11.93 9.85 19.01 20.9 16.47 13.2-3.03 15.68-16.92 10.3-24.38-4.29-5.95-11.42-7.66-18.3-6.56zm68 .1c-3.83 1.42-7.61 2.98-10.01 6.47-9.24 13.47 4.37 28.34 19.01 24.11 9.57-2.76 15.73-14.1 10.15-23.19-4.13-6.73-11.81-8.85-19.15-7.39zm69-.1c-4.5 1.34-8.98 3.27-11.43 7.56-1.34 2.35-1.48 4.29-1.55 6.91-.07 2.31-.1 5.87.72 8 2.72 7.04 12.38 10.04 19.26 8.47 7.89-1.8 12.59-6.19 12.96-14.47.16-3.54-.01-6.81-2.11-9.82-4.01-5.77-11.24-7.71-17.85-6.65zM477 640l-5.27 36-10 71-9.73 73h13c1.95 0 5.71.26 7.26-.99 1.7-1.37 1.85-4.96 2.16-7.01l2.31-16 7-49c1.16-8.05 2.19-19.85 5.6-27 4.52-9.48 18.87-18.51 24.67-4.98 3.11 7.25-.22 23.89-1.42 31.98l-4 28-5.58 45h22l10.13-75c1.54-11.09 4.49-23.94 2.87-35-3.69-25.05-30.92-26.58-47-12l3.73-29 4.27-28-22-1zm298 0-5.27 36-10 71-9.73 73h13l7.83-1.57 2.3-11.43 4.14-29 12.6-89 7.13-48-22-1zm-347 7-19.31 56L368 818.99c3.52 1.01 15.52 2.08 18.49 0 2.24-1.58 3.91-8.27 4.85-10.99l9.32-26L448 647h-20zm124 42-3 19h14c-2.24 27.62-12.13 60.7-12 88 .09 18.5 11.62 28.64 30 25.39 3.64-.65 15.1-2.74 16.19-6.66.7-2.49-4.12-13.64-5.19-16.73-6.72 2.42-15.57 7.91-18.78-3-.2-1.49-.2-3.45 0-5l8.2-63 2.58-19h25l2-19h-24l5-36h-14c-7.24.13-6.38 1.61-7.75 10-.62 3.78-2.89 21.67-4.27 23.69-2.23 3.27-10.32 2.31-13.98 2.31zm92 10v-10h-20l-12.27 86-5.73 45h13c1.95 0 5.71.26 7.26-.99 1.7-1.37 1.85-4.96 2.16-7.01l2.31-16 6.85-48c1.32-9.4 1.75-19.29 5.91-28 4.51-9.43 18.34-20.29 24.86-6 .74 1.63 1.31 4.21 1.46 6l-3.23 27-4.31 29-6.27 43 22 1 12.43-87c1.51-8.91 7.36-24.22 17.57-25.76 9.14-1.38 13.25 8.11 12.68 15.76l-5.41 39-8.27 57 22 1 8.27-58 5.73-43c.11-9.38.31-18.63-7.18-25.67-13.27-12.46-38.1-5.25-43.82 11.67-2.17-4.17-3.58-8.49-7.1-11.79-8.27-7.74-22.55-7.67-31.9-2-3.42 2.08-6.18 5-9 7.79zm-153-1v1l-1-1h1zM344 805l3-20-43-27 36-21.58c3.04-1.74 12.36-6.5 14.02-8.95 1.92-2.82 2.95-15.67 2.98-19.47-5.8 1.38-10.86 4.92-16 7.85l-26 14.85-25.57 14.93c-2.68 2.67-4.24 15.75-2.83 19.28 1.53 3.85 11.67 9.94 15.4 12.42L344 805zm469-97-3 19 43 27v2c-6.99 2.21-28.21 15.4-36 19.85-3.42 1.95-12.13 6.31-13.99 9.36-1.9 3.09-2.97 15.8-3.01 19.79l49-27.3c4.28-2.35 17.74-9.24 19.83-12.88 1.58-2.77 2.79-15.75 1.15-18.64-1.69-2.97-11.65-8.96-14.98-11.18l-27-18.34c-5.12-3.49-8.87-7.16-15-8.66z" />
</svg>